<svg xmlns="http://www.w3.org/2000/svg" viewBox="0 0 563 866"><title>Asset 1</title><g id="Layer_2" data-name="Layer 2"><g id="object"><path d="M383,293v-3c0-1,0-2,0-3s-1-7-1-6v3l-4-9-7-4-10,5-4,10c-1,1,6,8,7,9l5,2c2,2,4,5,6,8h2l10-6h1C385,297,383,295,383,293Z" fill="#eacdb0"/><polygon points="375 314 447 404 529 409 525 360 462 358 385 290 369 302 375 314" fill="#3b455a"/><polygon points="556 840 558 851 539 866 526 858 534 845 554 829 556 840" fill="#3b455a"/><polygon points="520 503 527 536 514 689 556 836 536 845 447 675 437 621 434 507 520 503" fill="#305399"/><polygon points="391 513 386 656 409 840 429 840 446 671 479 503 391 513" fill="#305399"/><polygon points="429 838 429 849 407 860 396 848 407 837 429 838" fill="#3b455a"/><path d="M537,561c-2,13-6,30-11,30h-2c-8-6-12-14-20-20s-17-11-27-14a281,281,0,0,0-44-13l-36-5c-10-1-20,0-29-2a65,65,0,0,1-27-15h0c3-5,6-11,10-15s10-11,14-16a293,293,0,0,0,24-36l31-50c7-12,13-24,22-35s18-20,29-23h11l34,6c4,1,8,1,12,4s7,10,9,16c8,27,11,55,10,84,0,15-1,30-2,44s-3,33-6,49Z" fill="#3b455a"/><path d="M488,407c-2,6-2,13-2,19-2,40,1,88-1,128l-99-22c4-14,11-34,15-48s5-18,9-27,15-27,24-39l50-70,3-3h5c9,0,19,1,28,4s-10,21-14,28S491,395,488,407Z" fill="#f7f7f7"/><path d="M492,347l14,7,6-13c5,1,10,1,13-3l2-4,7-19a19,19,0,0,0,1-7c0-4-3-7-6-10s-17-9-26-7l-7,3c-3,3-4,7-5,11l-3,11c-1,4-2,9,0,13s4,3,5,5S492,343,492,347Z" fill="#eacdb0"/><path d="M477,262a45,45,0,0,0,0-6c-1-4-2-8-2-12s2-9,5-10,5-1,7,0a42,42,0,0,1,21,12c5,6,10,12,17,13s11,5,16,11,14,13,18,20a24,24,0,0,1,3,11c0,13-7,26-17,33l-8,3c-5,2-12,5-17,3s13-16,12-22-14-13-21-15-16-1-23-3-10-8-12-13S477,269,477,262Z" fill="#3b455a"/><path d="M326,0,4,176c-10,5,2,56,25,114s52,102,63,99L444,286Z" fill="#587bc9"/><ellipse cx="386" cy="143" rx="12" ry="154" transform="translate(-25 158) rotate(-22)" fill="#3b455a"/><path d="M354,269l-9-8-13-11c-32-26-63-54-97-79-13-10-26-19-39-28s-24-16-38-24L24,194c-8,4,2,46,22,94s43,85,51,82l34-10,78-22,88-25,63-18,10-3h2c1-2-6-9-7-11Z" fill="#7db5db"/><path d="M373,292c-3,4-51-28-112-76s-108-91-104-95,55,32,116,81S376,288,373,292Z" fill="#fff"/><path d="M153,232l28-12c5-2,2-10-4-8l-25,11-9-20,18-8c5-2,2-10-4-8l-46,22c-5,2-2,10,4,8l20-10,9,19-25,10c-5,2-2,10,4,8l27-10Z" fill="#fff"/><path d="M104,278l-3-8h8c5,1,10,1,14-2s2-18-8-16-4,10,1,9,0,2-2,1h-4l-5-2c-3-1-7-1-10,1s-1,13,1,19S106,284,104,278Z" fill="#fff"/><path d="M201,274a4,4,0,0,0,2-5c-6-13-29-10-40-5s-24,19-17,33,24,16,36,10S205,286,201,274Zm-24,25c-8,3-20,1-24-8s7-17,15-20l12-3c3,0,9,0,13,2a5,5,0,0,0,0,5c3,4-2,12-4,16S181,298,177,299Z" fill="#fff"/><path d="M361,313v-3c0-1,0-2,0-3s-1-8-2-6v3l-5-10-8-3-10,6-4,11c-1,2,7,8,8,9l5,2c3,2,5,5,7,8h2l10-7v-2C363,317,361,315,361,313Z" fill="#eacdb0"/><polygon points="353 340 435 431 523 431 516 379 448 382 363 314 347 328 353 340" fill="#3b455a"/></g></g></svg>