<svg xmlns="http://www.w3.org/2000/svg" xmlns:xlink="http://www.w3.org/1999/xlink" viewBox="0 0 1350 1556"><defs><clipPath id="clip-path" transform="translate(-385 -202)"><path d="M2019,1541c-110,182-256,142-365,144-145,3-266-48-361-55a402,402,0,0,0-77,2c-67,8-134,31-202,57s-152,64-229,87c-60,18-172,19-290-5C276,1726,3,1586,0,1315c-6-512,432-308,228-727C86,296,296-169,742,63c204,106,376,195,637,112,156-50,422-86,522,138s-5,367,6,474C1937,1093,2200,1242,2019,1541Z" fill="none"/></clipPath></defs><title>Asset 3</title><g id="Layer_2" data-name="Layer 2"><g id="Слой_1" data-name="Слой 1"><g clip-path="url(#clip-path)"><path d="M826,1023s-166,174-222,322c66-19,203-22,203-22l151-168Z" transform="translate(-385 -202)" fill="#de623c"/><path d="M935,1060c-108-17-345-87-269-253s131-112,59-282,28-334,155-322,176,104,319,51,292,61,259,192-45,192,20,249,312,83,245,260-114,176-64,251-11,182-149,196-271-14-349-156S935,1060,935,1060Z" transform="translate(-385 -202)" fill="#062440"/><path d="M1236,751l-7,194s-101,72-179,24c12-60,28-159,28-159Z" transform="translate(-385 -202)" fill="#de623c"/><path d="M1048,881s-127,16-263,188c19,13,104,92,104,92Z" transform="translate(-385 -202)" fill="#5578e6"/><ellipse cx="1061" cy="596" rx="204" ry="275" transform="translate(-474 -4) rotate(-10)" fill="#f37a50"/><path d="M1276,557c-114,6-228-37-301-107C954,551,860,632,860,632S749,468,875,346,1334,232,1276,557Z" transform="translate(-385 -202)" fill="#062440"/><circle cx="1121" cy="620" r="22" transform="translate(-477 8) rotate(-10)"/><circle cx="959" cy="649" r="22" transform="translate(-485 -21) rotate(-10)"/><path d="M1033,657c-15,38-20,55-28,65,15,22,56,22,66,16-30-5-39-21-39-21Z" transform="translate(-385 -202)" fill="#de623c"/><ellipse cx="1281" cy="610" rx="68" ry="51" transform="translate(-244 1251) rotate(-62)" fill="#f37a50"/><path d="M1268,645h3a7,7,0,0,0,2-10c-7-11-9-20-5-28s22-18,34-20a7,7,0,0,0-2-14c-17,2-37,11-45,28s-6,22,6,41A7,7,0,0,0,1268,645Z" transform="translate(-385 -202)" fill="#de623c"/><path d="M914,625h2c34-15,48-37,49-38a11,11,0,0,0-19-11s-11,18-39,29a11,11,0,0,0,6,21Z" transform="translate(-385 -202)" fill="#062440"/><path d="M1158,581h-3c-37-2-58-18-59-19a11,11,0,0,1,14-17s17,13,46,14a11,11,0,0,1,1,22Z" transform="translate(-385 -202)" fill="#062440"/><path d="M1077,766c22-3,41,8,43,23s-20,19-42,22-35,2-37-13S1055,768,1077,766Z" transform="translate(-385 -202)" fill="#fff"/><path d="M1351,1573c-7-41-12-97-6-170l3-12,28-113,6-25c27-111,51-232,41-302-2-13-5-25-10-34s-8-11-21-18c-40-23-124-55-157-52l-2,6c-10,24-50,109-121,103-40-3-45-72-45-80h0l-18,5c-58,21-106,95-139,175-5,12-10,24-14,37l-6,18a191,191,0,0,0-8,42c-2,26,0,55,3,84,2,14,4,29,6,44,11,74,26,151,12,230-6,37-41,164-63,248h600C1409,1685,1353,1582,1351,1573Z" transform="translate(-385 -202)" fill="#7a94e6"/><path d="M1453,1125c-49,109-214,362-301,392l-115-135s38-63,76-141c53-108,140-229,162-262C1338,882,1534,947,1453,1125Z" transform="translate(-385 -202)" fill="#f37a50"/><path d="M596,1601l19,3c75,10,357,36,537-87,10-11-104-141-104-141l-11,5-79,34c-82,33-162,60-226,80s-123,35-136,38h-3Z" transform="translate(-385 -202)" fill="#f37a50"/><path d="M625,1592c-31,48-140,75-207,46s-15-81,20-85,80-1,77-18-21-23-25-44,61-19,107,41Z" transform="translate(-385 -202)" fill="#f37a50"/><path d="M1402,901c19,7,103,18,60,214-19,76-81,167-81,167s-131-74-207-180C1187,1063,1303,882,1402,901Z" transform="translate(-385 -202)" fill="#5578e6"/><path d="M1005,1267c-73,7-149-21-309,19-146,36-100,142-26,149,105,10,353-108,353-108Z" transform="translate(-385 -202)" fill="#de623c"/><path d="M1156,1228c6-35,3-66,36-52s25,62,21,85-8,41,8,35,23,22,5,32-48-5-56,29-35,101-48,75,12-59-2-63-35-16-15-30,33-21,31-41S1156,1228,1156,1228Z" transform="translate(-385 -202)" fill="#fa897a"/><path d="M866,1466c36-7,63,36,27,43s-52-15-76,4-81,45-66,20S806,1477,866,1466Z" transform="translate(-385 -202)" fill="#fa897a"/><circle cx="785" cy="1125" r="14" fill="#fa0c44"/><circle cx="1177" cy="1382" r="11" transform="translate(-1017 1035) rotate(-45)" fill="#fa0c44"/><circle cx="802" cy="1026" r="14" fill="#fa0c44"/><circle cx="740" cy="1118" r="9" fill="#fa0c44"/><circle cx="736" cy="1204" r="9" fill="#fa0c44"/><circle cx="831" cy="1105" r="9" fill="#fa0c44"/><circle cx="731" cy="1151" r="6" fill="#fa0c44"/><circle cx="763" cy="1161" r="5" fill="#fa0c44"/><circle cx="850" cy="1088" r="5" fill="#fa0c44"/><circle cx="750" cy="1227" r="5" fill="#fa0c44"/><circle cx="808" cy="989" r="5" fill="#fa0c44"/><circle cx="757" cy="1201" r="6" fill="#fa0c44"/><circle cx="830" cy="1484" r="11" transform="translate(-1191 820) rotate(-45)" fill="#fa0c44"/><circle cx="749" cy="1538" r="14" transform="translate(-1253 778) rotate(-45)" fill="#fa0c44"/><circle cx="389" cy="1306" r="9" fill="#fa0c44"/><circle cx="500" cy="1282" r="9" fill="#fa0c44"/><circle cx="402" cy="1330" r="5" fill="#fa0c44"/><circle cx="488" cy="1302" r="5" fill="#fa0c44"/><circle cx="410" cy="1303" r="6" fill="#fa0c44"/><path d="M993,1270c11-39,9-66,39-98s98-39,129-7c11,11,13,25-2,30s-44,1-71,24-18,39-16,67-62,42-62,42Z" transform="translate(-385 -202)" fill="#de623c"/><path d="M852,1277c22-1,51,5,62,20s-18,13-38,6-32,1-56,9S792,1281,852,1277Z" transform="translate(-385 -202)" fill="#fa7c6c"/><circle cx="887" cy="1297" r="11" transform="translate(-467 -142) rotate(-4)" fill="#e01947"/><circle cx="815" cy="1301" r="9" transform="translate(-467 -147) rotate(-4)" fill="#e01947"/><circle cx="856" cy="1282" r="6" transform="translate(-1056 877) rotate(-49)" fill="#e01947"/><circle cx="918" cy="1302" r="7" transform="translate(-1050 931) rotate(-49)" fill="#e01947"/><circle cx="842" cy="1289" r="5" transform="translate(-1067 869) rotate(-49)" fill="#e01947"/><circle cx="809" cy="1283" r="5" transform="translate(-1073 842) rotate(-49)" fill="#e01947"/><path d="M760,1100c18-11,51-8,45,22s-33,23-37,42,6,35-8,50-28-22-39-2-35-12-23-31S760,1100,760,1100Z" transform="translate(-385 -202)" fill="#fa7c6c"/><circle cx="400" cy="918" r="12" fill="#e01947"/><circle cx="376" cy="1001" r="12" fill="#e01947"/><circle cx="405" cy="944" r="8" fill="#e01947"/><circle cx="358" cy="954" r="8" fill="#e01947"/><circle cx="374" cy="944" r="5" fill="#e01947"/><circle cx="377" cy="1025" r="4" fill="#e01947"/><circle cx="334" cy="1002" r="4" fill="#e01947"/><circle cx="349" cy="998" r="5" fill="#e01947"/><circle cx="350" cy="1021" r="9" fill="#e01947"/><ellipse cx="1155" cy="658" rx="35" ry="17" transform="translate(-508 94) rotate(-14)" fill="#fa897a"/><ellipse cx="958" cy="700" rx="35" ry="17" transform="translate(-524 48) rotate(-14)" fill="#fa897a"/></g></g></g></svg>