<svg xmlns="http://www.w3.org/2000/svg" viewBox="0 0 142 378"><title>Asset 1</title><g style="isolation:isolate"><g id="Layer_2" data-name="Layer 2"><g id="Layer_1-2" data-name="Layer 1"><path d="M40,353a41,41,0,0,1-15,13c-2,1-12,6-6,10s9-1,13-2l20-10v-9Z" fill="#382040"/><path d="M81,353a41,41,0,0,0,15,13c2,1,12,6,6,10s-9-1-13-2L69,365v-9Z" fill="#382040"/><path d="M92,202a67,67,0,0,0-4-22H33a69,69,0,0,0-4,22c0,17,0,25,2,59,0,0,4,74,4,97,0,0,12,3,20,0s1-79,1-89,3-59,4-59h0c1,0,4,51,4,59s1,89,1,89,20,0,20,0c0-23,4-97,4-97C92,227,92,220,92,202Z" fill="#0f75bd"/><path d="M84,86H75a5,5,0,0,1-5-5V67H51V80a5,5,0,0,1-5,5H39v26H84Z" fill="#fba489"/><path d="M33,180a150,150,0,0,0,27,3,169,169,0,0,0,28-2c0-6-1-21,0-29s13-60,13-60c-12-5-18-6-26-7s-7,5-15,5-13-2-15-5-14,2-26,8c0,0,13,45,14,59S33,174,33,180Z" fill="#ce2450"/><path d="M12,165c4,0,11-3,11-4s5-33,5-35-2-35-4-35S10,96,9,108s-7,43-9,50S8,165,12,165Z" fill="#e62859"/><path d="M135,127c8,12-42-2-42-4s2-31,4-31,9,6,13,10Z" fill="#e62859"/><path d="M28,242h0c1-1-3-6-3-5l3,4,4,3h3a2,2,0,0,0-1-2l-3-2-2-3h3l3,2,3,2c2,1,4-2,2-3l-5-3-3-3,3,2,5,2h2a1,1,0,0,0,0-1l-3-2-3-2-4-3a5,5,0,0,1-1-4c1-2,2-2,3,0l3,3c2,1,2-2,1-4l-3-4-7-6-2-3v-2l-9-2,4,9s0,1,0,2a9,9,0,0,1-1,4,12,12,0,0,0,0,8l2,6C24,239,26,243,28,242Z" fill="#fba489"/><path d="M0,158a17,17,0,0,0,0,4c3,15,15,49,16,56s13-2,17-4-10-54-11-57S0,147,0,158Z" fill="#e62859"/><path d="M63,12,47,10c-5,0-11,2-14,6s-3,12-1,17a64,64,0,0,0,6,13c2,4,4,3,5-1s3-13,9-18,8-5,10-9S63,14,63,12Z" fill="#382040"/><path d="M77,13h0c0,1,0,2,0,3s2,6,1,7a4,4,0,0,0-3,3c0,2,1,4,2,5l5,6,3,5a17,17,0,0,1,1,5,50,50,0,0,1,0,7h3c1-5,1-10,2-15s0-5,1-7,2-8,2-11a9,9,0,0,0-1-4l-5-3H77Z" fill="#382040"/><path d="M51,78l9,2,9-2V63H51Z" fill="#f1856a"/><path d="M52,51c0,4-2,8-6,9s-8-7-8-11,3-5,7-5A8,8,0,0,1,52,51Z" fill="#fba489"/><path d="M86,27c-6-8-22-8-22-8S42,20,42,29s0,26,5,34S61,77,70,76s16-9,19-17S91,34,86,27Z" fill="#fba489"/><path d="M56,42H56a1,1,0,0,1,0-1,8,8,0,0,1,9-3h0a7,7,0,0,0-8,2Z" fill="#2b1949"/><path d="M87,38h0a1,1,0,0,0,0-1,7,7,0,0,0-9,0,1,1,0,0,0,0,1h1a6,6,0,0,1,7,0Z" fill="#2b1949"/><path d="M63,46a5,5,0,0,1-5,0h0c0,2,2,3,3,3s3-2,2-4Z" fill="#2b1949"/><path d="M87,43l-2,2H81c0,2,2,3,3,3s3-2,2-4Z" fill="#2b1949"/><path d="M74,55H70c0,1,2,2,4,2s3-2,3-3h0Z" fill="#e4776d"/><ellipse cx="59" cy="56" rx="4" ry="4" transform="translate(-5 6) rotate(-6)" fill="#f8918b"/><ellipse cx="86" cy="53" rx="4" ry="4" transform="translate(-5 9) rotate(-6)" fill="#f8918b"/><path d="M75,61h4a4,4,0,0,1-3,2c-1,0-4,0-6-2h5Z" fill="#fff"/><path d="M51,23h4a4,4,0,0,1,3,3c0,2-1,4-2,5l-5,6-3,5a17,17,0,0,0-1,5,50,50,0,0,0,0,7H44c-1-4-2-17-2-18a41,41,0,0,1-2-8,5,5,0,0,1,0-2l3-3Z" fill="#382040"/><path d="M83,12C80,9,77,3,74,1S64,0,60,1L52,5l-6,7c-2,2-5,4-7,3a24,24,0,0,0,0,7A16,16,0,0,0,49,33c5,2,10,2,14,1s10-2,13-6,6-4,7-8a8,8,0,0,0,1-5Z" fill="#382040"/><path d="M86,51l4-12c0,1,1,4,2,5l6,2-3,8H94l-8-3Z" fill="#f4eeea"/><path d="M94,55l-2,3H87V52Z" fill="#f4eeea"/><path d="M88,53l5,2-2,3H87S88,53,88,53Z" fill="#dcd6d1"/><path d="M87,54V52l7,2H87Z" fill="#a7a4a7" opacity="0.55"/><rect x="86" y="42" width="14" height="9.18" rx="1" ry="1" transform="translate(19 119) rotate(-71)" fill="#bbc9ca"/><path d="M88,52l5-13h0l6,2h0L94,54h0l-6-2Z" fill="#8aa2a4"/><polygon points="97 40 93 54 89 52 93 39 97 40" fill="#a8babb"/><path d="M86,51l4-12c0,1,1,4,2,5l6,2-3,8H94l-8-3Z" fill="#f4eeea" opacity="0.35" style="mix-blend-mode:screen"/><path d="M82,62l2-6h1l7,2h1l-3,9H77V62Z" fill="#7487b2"/><polygon points="77 66 77 62 83 63 86 56 92 59 89 67 77 66" fill="#556da1"/><polygon points="83 63 86 56 86 56 84 63 77 63 77 62 83 63" fill="#c2cadd"/><path d="M96,47c1-1,3,1,4,2H97l-3,2c-1,1-2,3-2,4h1c1,1,3-2,3-2l2-2h2l-3,2v2c0,1-1,3,1,3s2-2,3-3h1v2c0,1,2,9,2,11l6-2h2l3-3c-3-3-6-8-6-11s2-6,1-8l-3-3-3-3-2-4a4,4,0,0,0-4-2l-5,3c-2,3-1,4,0,5l4-2c1,0,1,1,2,1s2,4,2,4H96c-1,0-3,2-4,3a9,9,0,0,0-2,4c0,2,2,3,2,1Z" fill="#fba489"/><path d="M142,122a17,17,0,0,0,0-4c-3-15-23-49-25-56s-13,2-17,4,20,57,21,58S141,133,142,122Z" fill="#e62859"/></g></g></g></svg>