<svg xmlns="http://www.w3.org/2000/svg" xmlns:xlink="http://www.w3.org/1999/xlink" viewBox="0 0 249 468"><defs><clipPath id="clip-path"><path d="M44,334c-1,4-3,9-3,13s11,12,22,13H180c9,0,16,0,17-9s0-13-5-17Z" fill="none"/></clipPath><clipPath id="clip-path-2"><path d="M80,68s1,22,2,34,2,19,4,25,6,11,12,15,10,7,16,8,12,2,16,1,21-14,26-24,4-58,2-61Z" fill="none"/></clipPath><clipPath id="clip-path-3"><path d="M77,49l-8,3c-5,3-6,8-6,13s-1,13,1,17,11-2,15-3c24-6,50-5,74-2l22,4c2,1,4,2,5,0s1-5,1-6-1-10-2-15-3-10-9-12l-16-3H114a126,126,0,0,0-33,6Z" fill="none"/></clipPath></defs><title>Asset 1</title><g style="isolation:isolate"><g id="Layer_2" data-name="Layer 2"><g id="OBJECTS"><path d="M199,452c7-38,3-79-15-114l-3-5c-12,9-31,15-45,17s-31-1-47-5l-23-8-10-4-3,5c-20,41-24,86-12,129H195C197,463,198,458,199,452Z" fill="#9bc4e0"/><path d="M119,463a64,64,0,0,1,0-6v-6c0-2,0-4,0-6s0-4,0-6,1,4,1,6,0,4,0,6v6C119,459,119,461,119,463Z" fill="#69c"/><path d="M53,430H69l16,2,15,3,8,2h7c5,0,10-1,15-2l16-3h16l-16,2-15,3-8,2H107l-8-2-15-3-16-2H53Z" fill="#69c"/><path d="M106,369v16c0,5,1,11,1,17s0,11,0,17,0,6,0,8v8h20V423c0-1,0-3,0-4s0-11,0-16V386c0-5,0-11-1-16v32c0,5,0,11,0,16s0,3,0,4v12H114l-8-2h0v-8c0-3,0-5,1-8s0-11,0-16,0-11,0-17Z" fill="#69c"/><path d="M47,372H62l6-3c2-1,4-3,4-6a6,6,0,0,1-1,4l-3,3-7,4H54Z" fill="#69c"/><path d="M192,372l-7,2h-8l-7-4-3-3a6,6,0,0,1-1-4c0,3,2,4,4,6l6,3h14Z" fill="#69c"/><path d="M55,352c4,3,9,3,13,5l7,3,7,2,13,4,14,2h21c2-1,4-2,6-3s1-4,0-6v-3l-3-2-7-2h7l3,2v3a12,12,0,0,1,1,4,7,7,0,0,1-1,4l-3,3H95l-13-4-7-3-6-3H62Z" fill="#69c"/><circle cx="122" cy="361" r="5" fill="#69c"/><path d="M141,366l12-3,11-3,11-3,11-5-10,6-11,4-12,3Z" fill="#69c"/><path d="M154,367l-5-21,8-2,6,22" fill="#9bc4e0"/><path d="M154,367l-2-5v-5l-3-11h9l3,11v11l-3-11-3-11h1l-8,2h1l2,11v11Z" fill="#69c"/><path d="M86,367l5-23-8-2-6,24" fill="#9bc4e0"/><path d="M86,367V344h1l-8-2h1l-3,12-3,12V354l3-12h9v11l-2,6Z" fill="#69c"/><path d="M44,334c-1,4-3,9-3,13s11,12,22,13H180c9,0,16,0,17-9s0-13-5-17Z" fill="#edb340"/><g clip-path="url(#clip-path)"><path d="M53,324c-2,8-2,16-1,24s1,16,3,23h1c-3-7-3-15-3-23s-1-16,1-24Z" fill="#ffe133"/><path d="M67,325c0,8,0,16,0,24s0,9,0,13,0,7,0,11h1c-1-4,0-8,0-12s0-7,0-11,0-17,0-25Z" fill="#ffe133"/><path d="M81,325c1,15,2,30,3,45h1c-1-15-2-30-3-45Z" fill="#ffe133"/><path d="M97,321c0,9,2,18,2,28s-2,15,0,23h1c-2-8,0-16,0-24s-1-17-2-26Z" fill="#ffe133"/><path d="M109,318c7,18,3,37,6,56h1c-3-18,1-38-6-56Z" fill="#ffe133"/><path d="M126,319c3,19,4,37,4,56h1c0-19-1-38-4-56Z" fill="#ffe133"/><path d="M141,324c2,14,3,28,2,42h1c1-14-1-28-2-42Z" fill="#ffe133"/><path d="M155,320c5,17,4,34,4,51h1c0-17,1-35-4-51Z" fill="#ffe133"/><path d="M171,324c3,15,1,30,1,46h1c0-15,2-31-1-46Z" fill="#ffe133"/><path d="M189,329a76,76,0,0,1,1,23c-1,8-4,15-5,22h1c1-8,4-15,5-22a76,76,0,0,0-1-23Z" fill="#ffe133"/></g><path d="M38,256c0,13-6,27-1,39s5,8,6,13-7,19-4,28,21,9,30,8h37c12,0,23-2,35-3s40,8,56,1c5-2,8-9,6-13s-9-8-7-13,5-3,6-4,3-5,4-8-2-10-4-16a43,43,0,0,1-1-18c2-11,7-53,10-63s4-19,1-29-38-19-56-21-101,2-109,4-19,6-22,15,2,24,5,36S38,241,38,256Z" fill="#fc3"/><path d="M177,165c2-8,13-11,10-22s-5-7-8-10-7-5-5-10,8-6,10-9,5-7,4-11-7-21-15-26l-45-9H119L74,78c-8,5-16,16-16,26s1,8,4,11,8,5,10,9-3,8-6,10-7,5-9,10,7,13,9,22-6,13-7,20c-1,19,23,20,35,14l9-5c0-1,0-2,0-3s0-18-1-27-3-22,7-26,19-4,24,1,2,23,2,32-1,13-1,20l13,8c12,5,36,5,36-14C183,178,175,173,177,165Z" fill="#172235"/><path d="M80,68s1,22,2,34,2,19,4,25,6,11,12,15,10,7,16,8,12,2,16,1,21-14,26-24,4-58,2-61Z" fill="#bc875b"/><g clip-path="url(#clip-path-2)"><g opacity="0.3" style="mix-blend-mode:multiply"><circle cx="91" cy="119" r="11" fill="#bc875b"/></g><g opacity="0.3" style="mix-blend-mode:multiply"><circle cx="153" cy="119" r="11" fill="#bc875b"/></g></g><path d="M95,86l5,2h15l-5,3H99Z" fill="#172235"/><path d="M149,85l-5,3H132l-6-2h23Z" fill="#172235"/><path d="M92,101h11l5-2,5-3a12,12,0,0,1-4,5l-6,3H97Z"/><path d="M150,101l-5,3h-6l-6-3a12,12,0,0,1-4-5l5,3,5,2h11Z"/><path d="M71,54c0-13,2-23,11-32-5-1-10-8-9-14s9-8,15-7,10,4,16,5,11-1,17-2c26-3,42,26,42,49Z" fill="#9977b1"/><path d="M77,49l-8,3c-5,3-6,8-6,13s-1,13,1,17,11-2,15-3c24-6,50-5,74-2l22,4c2,1,4,2,5,0s1-5,1-6-1-10-2-15-3-10-9-12l-16-3H114a126,126,0,0,0-33,6Z" fill="#b28ac5"/><g clip-path="url(#clip-path-3)"><path d="M77,46c-3,7-3,15-3,23s-1,16,0,24h1c-1-8-1-17,0-25s0-15,3-22Z" fill="#806499"/><path d="M94,37c-2,8-4,15-4,23s1,16,1,25h1c0-8-1-16-1-25s2-16,4-23Z" fill="#806499"/><path d="M111,37c-1,7,0,15,0,22s1,17,1,26h1c0-9-1-17-1-26s-1-15,0-22Z" fill="#806499"/><path d="M131,40c2,7,2,15,3,23s1,16,0,23h1c1-8,0-16,0-23s-1-16-3-23Z" fill="#806499"/><path d="M146,38c7,15,6,31,6,47h1c0-16,0-33-6-47Z" fill="#806499"/><path d="M166,41c0,5,2,10,3,15a89,89,0,0,1,2,15,91,91,0,0,1-3,30h1a91,91,0,0,0,3-30,88,88,0,0,0-2-15c-1-5-3-10-3-15Z" fill="#806499"/></g><path d="M101,153c-7-1-15-13-14-20s12-11,18-16,6-15,16-15,9,11,16,14,13,6,13,16-4,17-10,21-6,1-10,2H119c-2,0-4,1-6-1Z" fill="#fff"/><path d="M47,106l-5-3L30,96c-2-1-9-6-11-1s2,5,4,6Z" fill="#9bb5e4"/><path d="M35,113H12c-3,0-10-1-12,2s5,6,8,4Z" fill="#9bb5e4"/><path d="M39,125l-10,2-10,2c-1,1-3,3-3,4s2,1,4,1l9-3Z" fill="#9bb5e4"/><path d="M202,106l5-3,12-7c2-1,9-6,11-1s-2,5-4,6Z" fill="#9bb5e4"/><path d="M213,113h23c3,0,10-1,12,2s-5,6-8,4Z" fill="#9bb5e4"/><path d="M209,125l10,2,10,2c1,1,3,3,3,4s-2,1-4,1l-9-3Z" fill="#9bb5e4"/><path d="M81,255c-4-10-9-20-14-30s-12-27-17-41-9-17-17-14-10,38-8,50,6,23,10,33,7,27,11,41,5,20,12,25,10,4,14,3c25-4,17-39,12-55Z" fill="#ffe133"/><path d="M88,219l7-24h15l-5,30Z" fill="#bc875b"/><path d="M104,205c8,0,10-7,10-14s-1-11-1-16-1-5,1-8l5-8c2-3,8-15,2-17s4-10,0-11,3-5,3-9-3-2-5,1-11,6-12,8L95,146c-3,5-9,9-8,15s7,42,7,42Z" fill="#bc875b"/><path d="M122,120h-2l-2,2-3,4-6,9-6,8-6,8h0v0h0l5-9,6-9,6-8,3-4,2-2h2Z" fill="#96623c"/><path d="M121,131h-2v2l-3,4-5,8-5,8-6,8h1v-2l3-4,5-8,5-8,3-4v-2h2Z" fill="#96623c"/><path d="M121,142h-2v2l-2,3-2,4-2,3-4,7-2,3-2,3,4-7,4-7,2-3,2-3,2-3v-2Z" fill="#96623c"/><path d="M54,313l5,6c13,10,30,3,35-11s3-14,5-21,8-14,10-22,6-24,1-33,4-8,3-10-11-6-16-7-11-2-14,0-2,5-2,9h0c-8,1-7,10-8,16s-1,7-4,9-7,4-8,9,1,8,0,11-5,6-7,10" fill="#ffe133"/><path d="M54,313l5,6,7,4a21,21,0,0,0,16-2,24,24,0,0,0,11-11c2-5,3-10,4-16v-6h1l3-8c3-5,6-9,7-15a72,72,0,0,0,3-16,37,37,0,0,0,0-8,18,18,0,0,0-3-7h0l2-6v-3h-1l-5-3-6-2H84v2a21,21,0,0,0-1,6H81l-4,2a9,9,0,0,0-2,4,34,34,0,0,0-1,5v5a13,13,0,0,1-2,5l-2,2-2,2-4,3a9,9,0,0,0-2,4h0a40,40,0,0,0,0,6,16,16,0,0,1,0,3v3l-4,5-3,5,3-5,3-5a10,10,0,0,0,1-6,40,40,0,0,1,0-6h0a9,9,0,0,1,2-5l4-3h2l2-2a12,12,0,0,0,1-5v-5a35,35,0,0,1,1-5,11,11,0,0,1,2-5l5-3H81a22,22,0,0,1,1-7v-2h18l6,2h3l3,2v4a14,14,0,0,1-1,3l-3,6h0a20,20,0,0,1,3,8,39,39,0,0,1,0,8,74,74,0,0,1-3,16v4l-2,4-4,7-3,7h0v6c-1,5-2,11-4,16a25,25,0,0,1-11,12,22,22,0,0,1-16,1l-7-4Z" fill="#edb340"/><path d="M87,226c0-1,0-2,0-3v-2h0l2-6a41,41,0,0,1-1,6H87Z" fill="#edb340"/><path d="M92,227v-6l2-6a14,14,0,0,1,0,3v3Z" fill="#edb340"/><path d="M98,228v-7l2-6a35,35,0,0,1-1,7v3Z" fill="#edb340"/><path d="M103,231v-6l2-6h1a2,2,0,0,1,0,1h0l-2,6v3Z" fill="#edb340"/><path d="M157,253c4-10,9-20,14-30s12-27,17-41,9-17,17-14,10,38,8,50-6,23-10,33-7,27-11,41-5,20-12,25a20,20,0,0,1-14,3c-25-4-17-39-12-55Z" fill="#ffe133"/><path d="M151,217l-7-24H128l5,30Z" fill="#bc875b"/><path d="M134,203c-8,0-10-7-10-14s1-11,1-16,1-5-1-8l-5-8c-2-3-8-15-2-17s-4-10,0-11-3-5-3-9,3-2,5,1,11,6,12,8l11,15c3,5,9,9,8,15s-7,42-7,42Z" fill="#bc875b"/><path d="M116,118h2l2,2,3,4,6,8,6,9,5,9h0v0h0l-6-8-6-8-6-9-3-4-2-2h-2Z" fill="#96623c"/><path d="M117,129h2v2l3,4,5,8,5,8,3,4v2h1l-6-8-5-8-5-8-3-4v-2Z" fill="#96623c"/><path d="M117,140h2v2l2,3,2,3,2,3,4,7,4,7-2-3-2-3-4-7-2-3-2-4-2-3v-2Z" fill="#96623c"/><path d="M185,311l-5,6c-13,10-30,3-35-11s-3-14-5-21-8-14-10-22-6-24-1-33-4-8-3-10,11-6,16-7,11-2,14,0,2,5,2,9h0c8,1,7,10,8,16s1,7,4,9,7,4,8,9-1,8,0,11,5,6,7,10" fill="#ffe133"/><path d="M185,311l-5,6-7,4a22,22,0,0,1-16-1,25,25,0,0,1-11-12c-2-5-3-11-4-16v-6h0l-3-7-4-7-2-4v-4a74,74,0,0,1-3-16,39,39,0,0,1,0-8,20,20,0,0,1,3-8h0l-3-6a14,14,0,0,1-1-3v-4l3-2h3l6-2h18v2a22,22,0,0,1,1,7h-1l5,3a11,11,0,0,1,2,5,35,35,0,0,1,1,5v5a12,12,0,0,0,1,5l2,2h2l4,3a9,9,0,0,1,2,5h0a40,40,0,0,1,0,6,10,10,0,0,0,1,6l3,5,3,5-3-5-4-5v-3a16,16,0,0,1,0-3,40,40,0,0,0,0-6h0a9,9,0,0,0-2-4l-4-3-2-2-2-2a13,13,0,0,1-2-5v-5a34,34,0,0,0-1-5,9,9,0,0,0-2-4l-4-2h-1a21,21,0,0,0-1-6v-2H139l-6,2-5,3h-1v3l2,6h0a18,18,0,0,0-3,7,37,37,0,0,0,0,8,72,72,0,0,0,3,16c1,5,4,10,7,15l3,8h1v6c1,5,2,11,4,16a24,24,0,0,0,11,11,21,21,0,0,0,16,2l7-4Z" fill="#edb340"/><path d="M152,224v-3h-1a41,41,0,0,1-1-6l2,6h0v2C152,222,152,223,152,224Z" fill="#edb340"/><path d="M147,225l-2-6v-3a14,14,0,0,1,0-3l2,6Z" fill="#edb340"/><path d="M141,226l-2-3v-3a35,35,0,0,1-1-7l2,6v7Z" fill="#edb340"/><path d="M135,229l-2-3v-3l-2-6h0a2,2,0,0,1,0-1h1l2,6v6Z" fill="#edb340"/><path d="M87,189c-3-2-8-3-13-2s-9,2-10,7a13,13,0,0,0,3,10Z" fill="#abd4ef"/><path d="M148,182c3-2,8-3,13-2s9,2,10,7a13,13,0,0,1-3,10Z" fill="#abd4ef"/><path d="M119,156c0,5-4,11-8,13a92,92,0,0,1-21,11l-12,5c-4,2-8,2-12,5l11-2c4,0,8,3,11,5l7,3c3,1,5,0,7-2s8-7,14-5,8,7,13,8,9-4,12-7,16-9,24-7h-1l-5-2-5-2-10-4-6-2a30,30,0,0,1-18-14C121,157,120,155,119,156Z" fill="#fff"/></g></g></g></svg>