<svg xmlns="http://www.w3.org/2000/svg" viewBox="0 0 179 298"><title>Asset 1</title><g style="isolation:isolate"><g id="Layer_2" data-name="Layer 2"><g id="Layer_1-2" data-name="Layer 1"><path d="M47,111s-6,4-12,17-13,44-13,44l14,3,18-38Z" fill="#f4d9bf"/><path d="M47,111s-6,4-12,17-13,44-13,44l14,3,18-38Z" fill="#f4d9bf" style="mix-blend-mode:multiply"/><path d="M48,112c-6,12-1,26-4,39a122,122,0,0,1-3,12c-1,2-1,5-4,5H29l-5,3,13,3,18-38Z" fill="#f4d9bf" style="mix-blend-mode:multiply"/><path d="M36,160H48l7-24-8-26s-11,7-16,20l-9,21A29,29,0,0,0,36,160Z" fill="#133c6e"/><path d="M47,111h0a28,28,0,0,0-3,10,79,79,0,0,0,0,15c0,2,1,5,1,7a20,20,0,0,1-1,6l-3,11h8l7-24Z" fill="#184c8b" opacity="0.6" style="mix-blend-mode:multiply"/><path d="M111,236c-5,4-2,6,1,17s5,29,14,25,6-20,5-28-4-23-14-17Z" fill="#6c8272"/><path d="M111,236l4-2,5,3a26,26,0,0,1,5,14c0,4,1,11-4,14s-6,0-8-2l-2-9C109,243,107,240,111,236Z" fill="#f2d7bd"/><path d="M116,239l2,2a13,13,0,0,1,1,5c0,3-1,6-3,9L98,271c-19,15-45,30-47,18,0,0,15-20,21-29s25-15,38-23C112,236,114,237,116,239Z" fill="#3b545d"/><g opacity="0.4" style="mix-blend-mode:multiply"><path d="M72,260l8-7c2,10-4,29-4,29s18-10,27-17l12-10,3-3v2L98,271c-19,15-45,30-47,18C51,289,66,269,72,260Z" fill="#3b545d"/></g><path d="M158,240c-5,4-2,6,1,17s5,29,14,25,6-20,5-28-4-23-14-17Z" fill="#6c8272"/><path d="M160,263c5-2,8-5,9-10a15,15,0,0,0-3-9c-1-2-2-3-4-4h-3c-5,4-2,6,1,17Z" fill="#46544a" opacity="0.4"/><path d="M178,254c-1-7-4-21-12-18,10,3,11,17,12,26s1,16-5,18h-5c2,2,4,2,6,1S179,262,178,254Z" fill="#46544a"/><path d="M163,243l2,2a13,13,0,0,1,1,5c0,3-1,6-3,9l-18,16c-19,15-45,30-47,18,0,0,15-20,21-29s25-15,38-23C159,239,161,241,163,243Z" fill="#3b545d"/><g opacity="0.4" style="mix-blend-mode:multiply"><path d="M119,264l8-7c0,3,0,5,0,8a81,81,0,0,1-1,10c0,3-1,5-2,8s7-8,10-13a54,54,0,0,1-6,13h0c4-1,7-3,10-5l10-7,4-3-8,7c-19,15-45,30-47,18C98,292,113,273,119,264Z" fill="#3b545d"/></g><path d="M134,195c4,26-5,59-6,65s-7,26-11,29-21,12-25,0,0-72,1-89Z" fill="#506e7a"/><g opacity="0.4" style="mix-blend-mode:screen"><path d="M97,245c-1,8,0,15,0,23s-1,16,1,23a179,179,0,0,0,1-25C98,259,98,252,97,245Z" fill="#506e7a"/></g><path d="M134,195l-41,6v10h7l15-3c3-1,6-2,8,0s5,9,6,14,1,29-1,43v-3C129,254,138,222,134,195Z" fill="#3b545d"/><g opacity="0.3" style="mix-blend-mode:multiply"><path d="M107,233l-6,2-5,2c-1,1-1,3-1,4s0,5,0,8,0,24,1,35,0,7,2,10l5,3c-4,0-8-2-10-8s-2-35-1-57Z" fill="#506e7a"/></g><path d="M66,202h47c-5,9-5,6-13,16s-25,67-37,75-25-2-21-17S56,222,66,202Z" fill="#506e7a"/><g style="mix-blend-mode:screen"><path d="M65,217H62c0,2-1,4-2,5l-6,15-6,17a87,87,0,0,0-4,14c4-8,6-17,9-26l5-13,3-7,2-3c1-1,0-2,0-3h0l7-3-5-3Z" fill="#506e7a" opacity="0.4"/></g><path d="M65,209h41c3-2,4-3,7-9H66l-5,11Z" fill="#3b545d"/><path d="M87,247l-3,6-6,11c-4,7-9,14-15,19s-6,5-9,5a9,9,0,0,1-8-3,17,17,0,0,1-4-8c-2,14,12,20,21,14s17-26,25-45Z" fill="#3b545d"/><g opacity="0.3" style="mix-blend-mode:multiply"><path d="M80,232H92l-5,13v-3a10,10,0,0,0,1-3C88,235,83,234,80,232Z" fill="#506e7a"/></g><path d="M91,96H77l-16,4L46,112s-3,27,4,41,13,52,13,52,35,14,72-8l-6-18C120,127,101,109,91,96Z" fill="#184c8b"/><path d="M47,130c0-6,1-13,1-20H46a147,147,0,0,0,0,27C47,136,47,133,47,130Z" fill="#184c8b" style="mix-blend-mode:screen"/><path d="M60,109c2,4,7,4,11,3s10-9,10-16H77l-16,4-3,3A12,12,0,0,0,60,109Z" fill="#184c8b" style="mix-blend-mode:multiply"/><path d="M130,179c-10-52-29-70-39-83H89a13,13,0,0,0-3,7c0,4,1,8,3,11s10,13,15,20,1,6,0,10-5,8-7,12l-8,13a16,16,0,0,1-7,6c-9,4-19,2-26-3,4,15,7,33,7,33s35,14,72-8Z" fill="#184c8b" opacity="0.6" style="mix-blend-mode:multiply"/><path d="M88,96a13,13,0,0,0-1,7c1,7,5,12,9,18l6,8c2,2,4,5,5,8a17,17,0,0,1,1,9,57,57,0,0,1-4,13,109,109,0,0,1-11,20c8-9,13-19,18-29h1c2,4,2,9,3,13s1,12,1,18a238,238,0,0,1-1,24l19-8-6-18c-10-52-29-70-39-83H88Z" fill="#184c8b" opacity="0.6" style="mix-blend-mode:multiply"/><path d="M78,196a24,24,0,0,0,12-3l-13-2-11-5-8-7,2,10,8,4Z" fill="#184c8b" opacity="0.6" style="mix-blend-mode:multiply"/><path d="M77,161H87c13,1,13,2,13,2s8,6,7,11-4,8-9,8-7,13-10,11,7-14,7-14l-8,7c-2,3-5,6-7,5s11-16,11-16l-7,5c-5,4-9,7-10,5s14-13,14-13l-9,4c-3,2-7,5-8,2s6-7,16-11C75,164,76,162,77,161Z" fill="#f4d9bf"/><path d="M84,171H74c-2,2-4,3-3,5s5,0,8-2Z" fill="#f4d9bf" style="mix-blend-mode:multiply"/><path d="M90,174H89l-4-2c-4,3-12,8-11,12s5-1,10-5Z" fill="#f4d9bf" style="mix-blend-mode:multiply"/><path d="M86,179c-4,4-8,9-6,11s5-2,7-5l3-3Z" fill="#f4d9bf" style="mix-blend-mode:multiply"/><path d="M145,131,104,99s-10-5-15-1-5,10,8,18l32,23C133,136,142,134,145,131Z" fill="#f4d9bf"/><path d="M145,131,104,99s-10-5-15-1-5,10,8,18l32,23C133,136,142,134,145,131Z" fill="#f4d9bf" style="mix-blend-mode:multiply"/><path d="M104,99s-10-5-15-1v2c3-3,10,0,13,2s14,9,21,14l9,7c3,2,5,4,7,7h0c-4,2-8,4-11,7h2c5-2,13-4,16-7Z" fill="#f4d9bf" style="mix-blend-mode:multiply"/><path d="M71,110a14,14,0,0,0,6-9L67,82l-4,3s-5,3-8,10l8,15C65,111,68,112,71,110Z" fill="#e3bb94"/><path d="M133,133s-3,1-10,8-28,26-28,26l10,7s24-17,35-27,7-14,6-16S133,133,133,133Z" fill="#f4d9bf"/><path d="M76,165l-9,5c-11,7-10,8-10,8s-4,9,0,13,8,4,12,3,12,7,14,4-13-8-13-8H79c3,1,8,3,9,0s-18-8-18-8h9c6,1,11,1,11-1s-19-4-19-4l10-2c3,0,9,0,8-2s-9-3-19-1C79,166,77,165,76,165Z" fill="#f4d9bf"/><path d="M31,169s2-1,10,2l29,8-3,11-34-5c-11-3-10-10-10-13S31,169,31,169Z" fill="#f4d9bf"/><path d="M57,198l-5,4H47c-3,1-4,3-5,6s-2,4-5,5H32c-2,1-4,4-3,6h0c0-2,0-4,3-5h6c2,0,4-3,5-5s1-4,3-5h5a15,15,0,0,0,6-6Z" fill="#ababab"/><path d="M56,191l-6,2H46c-3,0-5,2-8,3s-4,0-6-1H27l-4,2-4,3h2l6-3H37c3-1,6-4,9-3h5l5-2S56,191,56,191Z" fill="#ababab"/><path d="M105,25h1C101,11,86,4,73,1S57,0,50,1L39,5,33,8h0V6s0-3-1-3H31L30,7v4H21l2,2h1l-9,6A51,51,0,0,0,4,31C2,36,0,41,0,46A28,28,0,0,0,7,61l3,3c3,1,7-4,9-6S35,47,45,44l16-3c4,2,9,5,12,9s5,11,6,17,0,11,0,17,0,4,1,5h0a15,15,0,0,0,15-5l2-3v4h2c3-4,3-10,3-15a38,38,0,0,0-1-7v2h2c3-4,4-11,4-16a24,24,0,0,0-3-10h1c1,1,2,0,2-1s-3-9-5-13Z" fill="#866c5d"/><path d="M105,25h1C101,11,86,4,73,1H70c9,3,16,9,20,18H89l-3-2,5,5c4,5,7,10,8,17H97l-6-6a16,16,0,0,1,2,12H93c-2-4-4-8-9-10s6,15,2,21H85c-2-3-3-8-5-11a24,24,0,0,0-8-7c2,4,7,13,3,16a39,39,0,0,1,3,12c0,6,0,11,0,17s0,4,1,5h0a15,15,0,0,0,15-5l2-3v4h2c3-4,3-10,3-15a38,38,0,0,0-1-7v2h2c3-4,4-11,4-16a24,24,0,0,0-3-10h1c1,1,2,0,2-1s-3-9-5-13Z" fill="#866c5d" opacity="0.5" style="mix-blend-mode:multiply"/><path d="M9,46c-3,3-4,7-6,11l3,4a40,40,0,0,1,1-7Z" fill="#91600a" style="mix-blend-mode:multiply"/><path d="M17,51a52,52,0,0,1-4,12l4-3a15,15,0,0,1,0-6Z" fill="#91600a" style="mix-blend-mode:multiply"/><path d="M24,55h2a18,18,0,0,1-1-5A36,36,0,0,1,24,55Z" fill="#91600a" style="mix-blend-mode:multiply"/><path d="M18,76c-3,3-4,9,3,14s8,3,9-3l-3-7S21,73,18,76Z" fill="#efcaa6"/><path d="M22,80l-4,2h3l3,2h0A3,3,0,0,0,22,80Z" fill="#c39368"/><path d="M63,42H62l-2-2Z" fill="#ae9f00" opacity="0.5" style="mix-blend-mode:multiply"/><path d="M87,54S78,30,43,39C24,43,15,47,9,50s0,14,5,20,10,9,11,15,0,8,2,12,5,5,9,6l11,2H56a35,35,0,0,0,17-5c9-6,19-16,19-27S90,60,87,54Z" fill="#f4d9bf"/><path d="M87,54S78,32,47,38h0l12,5A48,48,0,0,1,78,59c4,6,9,15,7,23a23,23,0,0,1-6,11l-11,9-9,5a35,35,0,0,0,15-5c9-6,19-16,19-27S90,60,87,54Z" fill="#f4d9bf" style="mix-blend-mode:multiply"/><path d="M49,95a6,6,0,0,0,1-3l-5,4C46,97,48,96,49,95Z" fill="#f4d9bf" style="mix-blend-mode:multiply"/><path d="M56,82l5-2h5C63,79,59,79,56,82Z" fill="#f4d9bf" style="mix-blend-mode:multiply"/><path d="M29,87H39C36,84,32,84,29,87Z" fill="#f4d9bf" style="mix-blend-mode:multiply"/><ellipse cx="67" cy="82" rx="5" ry="2" transform="translate(-15 15) rotate(-11)" fill="#f9cbc0"/><ellipse cx="30" cy="90" rx="4" ry="2" transform="translate(-17 8) rotate(-11)" fill="#f9cbc0"/><path d="M10,72h2c0,1,0,3,1,3h1c3-2,5-7,5-12v2h1c1,0,3-2,4-3v5h1c2,0,4-3,5-4a13,13,0,0,0,2-5l3,4h1a7,7,0,0,0-1-5c3,2,6,4,10,4h0l-2-2,6,3c2,1,5,2,7,2h0l-2-3,6,2h1V57l4,3c2,0,3-1,2-3h0c1,2,3,4,5,5s2-2,2-4h0l4,2a24,24,0,0,0,2,7c1,2,2,2,4,1l2-3c5-6,3-14,0-20A30,30,0,0,0,69,31c-11-3-23-2-33,0a50,50,0,0,0-15,6L10,44H9c-5,1-6,9-6,13S5,69,10,72Z" fill="#866c5d"/><path d="M88,44c1,4,1,9-1,13H85c-2-3-3-8-5-11a24,24,0,0,0-8-7c2,5,8,14,2,17S63,50,60,45s3,6,1,8-6-3-8-5,2,6-1,7-6-1-8-3-5-4-7-7,2,4,2,6H37c-3-2-4-4-6-7s1,5,0,8-2,3-4,2-3-4-3-7-1,11-6,13H17c-1-2-1-4-1-7V51a50,50,0,0,1-4,13c-1,2-4,5-5,2S7,58,7,55l2-9c-3,3-4,7-6,11H4c0,5,1,12,6,15h2c0,1,0,3,1,3h1c3-2,5-7,5-12v2h1c1,0,3-2,4-3v5h1c2,0,4-3,5-4a13,13,0,0,0,2-5l3,4h1a7,7,0,0,0-1-5c3,2,6,4,10,4h0l-2-2,6,3c2,1,5,2,7,2h0l-2-3,6,2h1V57l4,3c2,0,3-1,2-3h0c1,2,3,4,5,5s2-2,2-4h0l4,2a24,24,0,0,0,2,7c1,2,2,2,4,1l2-3c5-6,3-14,0-20Z" fill="#866c5d" opacity="0.5" style="mix-blend-mode:multiply"/><path d="M55,78c1,2,3,3,4,2s1-2,0-4-3-3-4-2S54,76,55,78Z" fill="#3d1a0b"/><path d="M56,75h1s0-1,0-1H56S56,75,56,75Z" fill="#fff"/><path d="M29,83l3,2c1,0,0-2,0-4l-3-2C28,80,28,81,29,83Z" fill="#3d1a0b"/><path d="M30,81h1s0-1,0-1H29S29,80,30,81Z" fill="#fff"/><path d="M99,61c-1-2-3-3-5-2s-4,2-5,4v2h0c-1,3-4,11,2,12s4-2,5-3a18,18,0,0,0,4-7A9,9,0,0,0,99,61Z" fill="#f4d9bf"/><path d="M94,63c-4,2-6,8-5,13h2c2,0,4-2,5-3a18,18,0,0,0,4-7h0C98,63,97,62,94,63Z" fill="#f4d9bf" style="mix-blend-mode:multiply"/><path d="M95,63c-1,0-3,1-3,2s-3,6-1,9h0V71h2V68h0l-2,2H90a8,8,0,0,1,1-4c1-2,5-5,5-1h0C97,64,97,63,95,63Z" fill="#f4d9bf" style="mix-blend-mode:multiply"/><path d="M31,71l-5,5c-1,1-2,2-1,3h1c1-3,7-2,6-8Z" fill="#866c5d"/><path d="M61,66h0c-4-4-11-1-16-1H61Z" fill="#866c5d"/><path d="M49,91l-2,2H45c-1,1-2-2-2-3a27,27,0,0,1-1-9h0c0,4,0,8,1,12s6-2,7-4S50,91,49,91Z" fill="#c39368"/><path d="M66,101H55l5-2h6Z" fill="#c39368"/><path d="M89,96s-6,5,1,15,26,29,26,29,16-7,18-22C134,118,108,89,89,96Z" fill="#133c6e"/><path d="M92,96c7,1,13,5,18,8a99,99,0,0,1,17,16c2,2,3,4,2,7v3a23,23,0,0,0,6-12S108,89,89,96v2Z" fill="#184c8b" opacity="0.6" style="mix-blend-mode:multiply"/></g></g></g></svg>