<svg xmlns="http://www.w3.org/2000/svg" viewBox="0 0 1389 1422"><title>Asset 7</title><g id="Layer_2" data-name="Layer 2"><g id="Слой_1" data-name="Слой 1"><path d="M276,463s-27,88-43,82,38-96,38-96-55-75-86-88c0,0,5,102-9,93s-24-116-24-116S83,283,46,321s-28,72-19,80,83,46,76,55-64-3-86-25c0,0-9,90,32,107s67-1,92,10,40,27,24,27-55-26-83-20-50,8-17,35,101,57,129,36l4-3-4,3c5,8,5,32,4,50,0,3-1,7-1,13h0v6c-4,39-41,91-41,91l7,6c47-47,41-109,41-109,0-47,18-79,18-79s91-2,87-73C309,533,300,486,276,463Z" fill="#dfebfd"/><path d="M615,295c10,28,100,100,100,100s29-24,56-49,39-39,44-51c11-27-1-66-40-73s-60,34-60,34-21-41-60-34a53,53,0,0,0-18,6C612,242,606,273,615,295Z" fill="#f99746"/><path d="M304,47c-2-6-24-66-118-42,0,0,47-8,61,10,0,0-38-16-62-1s-25,64-21,79,32,58,49,57c7,0,13-3,20-6a229,229,0,0,0-6,26c-15,87,45,151,74,133s34,22,34,22L486,111S370-17,304,47Z" fill="#2c3a64"/><path d="M515,886c-1,23,40,99,64,164h0c15,42,30,81,38,102a244,244,0,0,1,12,40c7,35,19,107,22,225v5H439v-5l-5-26h0l5-111-13-21-38,15-17,143v5H155c0-2,0-3,0-5,0-37,0-69,0-96a768,768,0,0,1,49-271c25-66,61-135,54-167-2-7-28-73-40-135l-4-20v4c-20,82-45,189-50,207-8,29-82,256-82,256H44S66,973,87,917s30-268,50-360c10-48,26-69,52-82h0c13-7,29-12,49-18l41-13c22-7,42-18,48-40s9-45,9-76h0q0-9,0-19h13l101,16h0v3h0v13h0v3h0c0,2,0,4,0,6s0,9,0,14v6h0v15c1,18-2,32,3,41s34,17,65,30c16,7,33,15,47,26s34,32,41,57c25,91,41,315,62,372s43,278,43,278H674s-74-226-82-256c-2-9-10-42-20-83L542,736l-3-11v31C535,817,515,869,515,886Z" fill="#ffb27d"/><path d="M449,325s-1,34,0,65c-60,1-93-53-107-82Z" fill="#ed985f"/><path d="M470,355s-141,8-145-80-24-146,66-155,109,24,117,53S507,350,470,355Z" fill="#ffb27d"/><path d="M503,124c-23-26-39-19-48-11-79-40-126,25-126,25-7,64-51,101-51,101s26,15,85-3c18-5,34-19,47-35-23,41-54,71-54,71,70-35,94-135,97-146,9,7,27,24,32,40s13,68,26,66C510,234,537,163,503,124Z" fill="#2c3a64"/><path d="M45,1188s-31,50-32,65,3,65,3,65,12-3,14-27,39-38,46-54,4-48,4-48Z" fill="#ffb27d"/><path d="M81,1193s10,40,6,54-9,35-16,33-13-43-13-43Z" fill="#ffb27d"/><path d="M20,1254c0,2-20,58-20,58s16,0,17-8S20,1254,20,1254Z" fill="#ffb27d"/><path d="M709,1193s31,50,32,65-3,65-3,65-12-3-14-27-39-38-46-54-5-50-5-50Z" fill="#ffb27d"/><path d="M673,1199s-10,40-6,54,9,35,16,33,13-43,13-43Z" fill="#ffb27d"/><path d="M733,1259c0,2,20,58,20,58s-16,0-17-8S733,1259,733,1259Z" fill="#ffb27d"/><path d="M204,1050s146,45,375,0c0,0,65,95,92,367H437l-22-131H389l-16,131H134S141,1173,204,1050Z" fill="#f99746"/><path d="M544,608c3,28,12,55-2,129l-4,20s-140,46-318,0l-3-8-5-16c-7-25-17-65-15-90,4-39,30-117-10-167h0c13-7,29-12,49-18,0,0,35,108,84,114a522,522,0,0,0,91,2s57,2,79-37,26-70,27-73c16,7,33,15,47,26C558,503,540,560,544,608Z" fill="#fff"/><polygon points="651 329 642 280 637 301 583 301 583 298 635 298 642 263 651 314 656 297 665 297 671 267 680 312 684 295 703 295 710 272 717 313 722 295 738 295 742 269 753 310 756 295 777 295 778 307 789 263 797 295 831 295 831 298 794 298 789 276 776 327 774 298 759 298 753 323 743 285 740 298 724 298 716 328 709 286 706 298 686 298 679 328 671 284 668 300 658 300 651 329" fill="#fff"/><path d="M1146,820c-1,0-22-12-43-34s-42-63-41-98c1-49,23-79,40-95s50-30,78-28c53,4,51,60,51,61h-6c0-2,1-51-45-54-26-2-53,8-73,27s-37,43-38,90c-2,81,79,126,80,126Zm83-194h0Z" fill="#ef7e29"/><path d="M1389,842v530a45,45,0,0,1-45,45H1123a53,53,0,0,1-53-53V844a107,107,0,0,1,73-101c21-7,35-26,36-48V676h100v18a57,57,0,0,0,38,49A105,105,0,0,1,1389,842Z" fill="#fff"/><path d="M1389,842v530a45,45,0,0,1-45,45H1186a53,53,0,0,1-53-53V844a107,107,0,0,1,73-101c21-7,35-26,36-48V676h36v18a57,57,0,0,0,38,49A105,105,0,0,1,1389,842Z" fill="#afcdfb" opacity="0.5"/><path d="M1382,905v457a43,43,0,0,1-43,43h-32c-27,0-41-6-56-18s-48-10-59,4-42,14-42,14h-22a50,50,0,0,1-50-50V902c28-6,70-9,124,2S1335,911,1382,905Z" fill="#afcdfb"/><path d="M1198,622h62a26,26,0,0,1,26,26v37a0,0,0,0,1,0,0H1173a0,0,0,0,1,0,0V647A25,25,0,0,1,1198,622Z" fill="#f99746"/><rect x="1133" y="833" width="230" height="475.99" fill="#ef7e29"/><path d="M1100,1389s-16,18-55,24h0c-16,2-37,3-62-1-86,13-117-23-117-23-88-70-89-217,0-250,26-10,49-8,67-2a162,162,0,0,0,100,0c19-6,41-8,67,2a92,92,0,0,1,31,19h1C1186,1212,1175,1329,1100,1389Z" fill="#95c38b"/><path d="M1100,1389s-16,18-55,24h0c-45,4-25-14-74-14s-78-16-109-91-6-146,43-154,73,30,134-10c42-27,93,15,93,15h1C1186,1212,1175,1329,1100,1389Z" fill="#a8d29f"/><path d="M989,1085c-18-11-36,4-57,13s-62,8-62,8a294,294,0,0,1,44-48C941,1034,989,1085,989,1085Z" fill="#a8d29f"/><path d="M989,1085c-17-14-48-22-63-16s-56,36-56,36a294,294,0,0,1,44-48C941,1034,989,1085,989,1085Z" fill="#82b378"/><path d="M981,1158h0c-11-25-5-57,2-79s17-41,22-52a3,3,0,0,1,5,0l2,7a24,24,0,0,1-2,20c-11,18-33,61-23,97C989,1155,983,1163,981,1158Z" fill="#558949"/><path d="M1086,1160s35,11,36,37-25,24-38,11S1065,1159,1086,1160Z" fill="#d1f2c9"/><path d="M440,661c-127-29-253,41-287,156-2,7,3,15,11,17h0c8,2,16-2,18-10,30-101,140-161,252-136S626,823,601,931l29,6C658,815,572,690,440,661Z" fill="#95c38b"/><path d="M574,917l26,58a8,8,0,0,0,12,2l45-42c4-3,2-9-3-10l-73-16C576,908,572,913,574,917Z" fill="#95c38b"/><path d="M335,1190c127,29,253-41,287-156,2-7-3-15-11-17h0c-8-2-16,2-18,10-30,101-140,161-252,136S150,1028,174,920l-29-6C118,1036,203,1160,335,1190Z" fill="#a8d29f"/><path d="M201,933l-26-58a8,8,0,0,0-12-2l-45,42c-4,3-2,9,3,10l73,16C199,943,203,938,201,933Z" fill="#a8d29f"/></g></g></svg>