<svg xmlns="http://www.w3.org/2000/svg" viewBox="0 0 500 434"><title>Asset 2</title><g id="Layer_2" data-name="Layer 2"><g id="OBJECTS"><path d="M249,186s-17,11-25,41l-6,21-52-80s2-4,4-13,1-14-1-15-7,10-7,10-4-21-8-27-5,5-5,7,0,10,0,10-8-13-13-14-1,10,4,17-13-5-17-4,4,9,11,14,4,17,18,19c0,0,22,104,50,116s40-7,48-18,25-49,26-56,5-17-5-27S249,186,249,186Z" fill="#ce8f6f"/><path d="M115,29s-10-11-3-19,22-3,31,6S166-3,238,6s130,7,130,7,10-9,20-9,2,25,2,25,18,45,6,104-8,63-8,63,13,12,6,21-21,0-21,0-34,9-83,4-145,2-168-15c0,0-12,6-20,1s-3-18,6-21,11-26,4-68S115,29,115,29Z" fill="#dae1ea"/><path d="M107,25S97,14,104,6s23-3,31,6S158-7,230,2,361,9,361,9s10-9,20-9,3,25,3,25,19,45,6,104-8,63-8,63,13,12,6,21-21,0-21,0-34,9-83,4-145,2-168-15c0,0-12,6-20,1s-3-18,7-21,12-26,4-68S107,25,107,25Z" fill="#fff"/><path d="M196,20s-35,9-25,56,4,65,34,86,29,24,71,30,70,12,97-26S387,55,354,37,260-7,196,20Z" fill="#93acc9" opacity="0.35"/><path d="M264,168s24-1,36,25,28,90,28,90H240S226,167,264,168Z" fill="#dae1ea"/><path d="M198,53a83,83,0,0,0-10,31c-2,18-13,13-16,20s3,13,3,13-4,32,30,45c17,5,28-2,33,0s3,10,3,10,11-8,22-4c0,0-18-12-6-35,0,0,13-3,13-16s-8-19-16-14-6,13-6,13-14-9-23-38a44,44,0,0,0,2,17S201,83,198,53Z" fill="#ecb595"/><path d="M391,89c-10-50-45-40-45-40s17-9,17-9c-22-9-32,11-51,14s-34-41-85-33-56,56-56,56a68,68,0,0,0,2,26c4-5,13-1,15-19a83,83,0,0,1,10-31c4,29,29,40,29,40a44,44,0,0,1-2-17c8,29,23,38,23,38s-2-8,6-13,16,1,16,14-13,16-13,16c-9,18-1,29,4,33l2,2c19,19,46,16,46,16s-20-12-20-12,28,10,43,10c49,1,51-53,51-53s3,21,3,21S401,139,391,89Z" fill="#2c4470"/><path d="M196,56s1,27,31,39c0,0,6,15,21,20,0,0-13-8-23-38a26,26,0,0,0,2,17s-24-11-29-40Z" fill="#e19f7b"/><path d="M193,95a23,23,0,0,0,0,4,14,14,0,0,0,1,4l2,3,4,2h4l3-3a18,18,0,0,0,4-8v4l-2,4-3,3h-5l-4-2-2-4A17,17,0,0,1,193,95Z" fill="#2c4470"/><path d="M191,126a9,9,0,0,0,1,5l4,2a4,4,0,0,0,3-3v-2a6,6,0,0,0,0-2v3a7,7,0,0,1,0,3v2h-5l-2-2A8,8,0,0,1,191,126Z" fill="#2c4470"/><path d="M258,125s-5-7-3-15,7-2,8-1,2,3,0,6-1,6-2,8S258,127,258,125Z" fill="#e19f7b"/><path d="M196,75v7s16-2,22,10C218,92,214,78,196,75Z" fill="#2c4470"/><path d="M264,113v-3l-2-2h-3l-2,2a13,13,0,0,0-1,6v6a20,20,0,0,1-2-6,12,12,0,0,1,1-6l2-3h3A8,8,0,0,1,264,113Z" fill="#2c4470"/><path d="M254,167s24-1,36,25,28,90,28,90H230S216,167,254,167Z" fill="#a3b9d9"/><path d="M263,168s15,5,19,39,9,64,9,64H250Z" fill="#93acc9"/><path d="M241,172s-13,16-12,47c0,13,0,22,0,22l-73-62s0-4,0-14-3-14-5-14-3,12-3,12-10-19-16-23-4,6-2,8,3,10,3,10-11-10-17-9,2,10,9,16-14-1-17,1,6,7,14,10,9,15,23,13c0,0,51,93,82,96s37-19,40-31,9-54,9-61-1-18-12-24S241,172,241,172Z" fill="#ecb595"/><path d="M275,192c-1-7-1-18-12-24a17,17,0,0,0-14-1c26,11,16,41,15,48s-7,49-35,52c-16,2-38-16-53-31,16,23,36,45,51,47,30,4,37-19,40-31S276,199,275,192Z" fill="#e19f7b"/><ellipse cx="221" cy="120" rx="10" ry="5" fill="#e99b6f"/><path d="M234,162s8-2,17-9-5,7-11,10S239,162,234,162Z" fill="#e19f7b"/><path d="M193,100s-2,3-4,4,9,14,19,2c0,0-6,7-13,0S193,102,193,100Z" fill="#2c4470"/><path d="M500,314c-55,27-109,38-141,33s-73-27-130-14-73-2-128-12S0,346,0,346V282s44-37,100-27,71,25,128,12,98,9,130,14,86-6,141-33Z" fill="#fff"/><path d="M354,304s12,73-52,130C302,434,391,378,354,304Z" fill="#93acc9" opacity="0.33"/><path d="M337,419s34-19,38-62C375,357,365,389,337,419Z" fill="#93acc9" opacity="0.33"/><path d="M115,373s39,1,65-33C180,340,154,363,115,373Z" fill="#93acc9" opacity="0.33"/><path d="M199,312s-1,33-37,56-60,20-60,20S179,376,199,312Z" fill="#93acc9" opacity="0.33"/></g></g></svg>