<svg xmlns="http://www.w3.org/2000/svg" viewBox="0 0 340 452"><title>Asset 1</title><g id="Layer_2" data-name="Layer 2"><g id="Layer_1-2" data-name="Layer 1"><path d="M182,1s16-2,22,14,11,21,12,29c3,34,18,26,14,45s-7,22-7,22l-37-7H147s15-7,12-23-12-42-7-59S172,2,182,1Z" fill="#163342"/><circle cx="179" cy="336" r="89" fill="#eb4747"/><path d="M304,407s2,7,0,14-3,18,2,24,13,9,24,6,9-12,6-20-13-22-14-27S304,407,304,407Z" fill="#faa146"/><path d="M305,414s7,3,19-3l-3-7-17,3Z" fill="#8e4f3a"/><path d="M316,381c-2-11-8-61-12-73s-13-26-16-31-22-21-29-28-30-24-32-26l-4-6c-19,0-43,3-43,3s-22-2-41-2l-4,6c-2,3-28,19-34,26s-25,23-29,28-13,20-16,31-9,63-12,74a183,183,0,0,1-6,22s6,5,18,3c0,0,16-48,23-62s10-40,16-45,24-10,43-20,23-18,30-18h27c7,0,11,8,30,18s38,16,43,20,8,31,16,45,23,62,23,62c12,2,17-3,17-3Z" fill="#8e4f3a"/><path d="M324,411h-3c-3,0-9-3-16,2S323,421,324,411Z" fill="#faa146"/><path d="M37,404s-5,10-10,12S-3,431,0,440s35,8,41,0,11-4,13-11,1-22,1-22H45C41,404,41,402,37,404Z" fill="#faa146"/><path d="M310,341a57,57,0,0,0-27,8l-2-4c-7-14-10-40-16-45s-24-10-43-20-23-18-30-18H165c-7,0-11,8-30,18s-38,16-43,20-8,31-16,45v2c-11-8-27-7-28-7,2-14,4-27,6-32s13-26,16-31,22-21,29-28,32-24,34-26l4-6c19,0,41,2,41,2s24-3,43-3l4,6c2,3,26,19,32,26s25,23,29,28,13,20,16,31S308,327,310,341Z" fill="#fccca2"/><path d="M298,58s1-5,1-8l-2-7c0-2-2-10-2-12s3-6,3-8,0-5,1-5,3,3,3,3a2,2,0,0,1,1-2c3-1,4,1,4,1l2-2h7a4,4,0,0,1,3,3s3,0,4,1,0,3,0,4-1,12-6,20-5,16-5,16Z" fill="#8e4f3a"/><rect x="306" y="8" width="8" height="42.09" transform="translate(233 331) rotate(-81)" fill="#b85858"/><path d="M301,22s-2,10,1,12,3-1,3-1-1,3,2,4,3-3,3-3a3,3,0,0,0,3,3c3,0,3-4,3-4s2,4,5,1,2-12,2-12-1-2-4-1-1-4-6-2-4-3-6,0S303,16,301,22Z" fill="#693a2b"/><path d="M296,1h-6a3,3,0,0,0-4,3l-8,45a3,3,0,0,0,3,4h6a3,3,0,0,0,4-3l8-45A3,3,0,0,0,296,1Z" fill="#eb7171"/><path d="M338,7h-6a3,3,0,0,0-4,3l-8,45a3,3,0,0,0,3,4h6a3,3,0,0,0,4-3l8-45A3,3,0,0,0,338,7Z" fill="#eb7171"/><path d="M62,58s-1-5-1-8l2-7c0-2,2-10,2-12s-3-6-3-8,0-5-1-5-3,3-3,3a2,2,0,0,0-1-2c-3-1-4,1-4,1l-2-2H44a4,4,0,0,0-3,3s-3,0-4,1,0,3,0,4,1,12,6,20,5,16,5,16Z" fill="#8e4f3a"/><rect x="29" y="25" width="42" height="7.73" transform="translate(-4 8) rotate(-9)" fill="#b85858"/><path d="M59,22s2,10-1,12-3-1-3-1,1,3-2,4-3-3-3-3a3,3,0,0,1-3,3c-3,0-3-4-3-4s-2,4-5,1-2-12-2-12,1-2,4-1,1-4,6-2,4-3,6,0S58,16,59,22Z" fill="#693a2b"/><path d="M64,1h6a3,3,0,0,1,4,3l8,45a3,3,0,0,1-3,4H73a3,3,0,0,1-4-3L61,5A3,3,0,0,1,64,1Z" fill="#eb7171"/><path d="M23,7h6a3,3,0,0,1,4,3l8,45a3,3,0,0,1-3,4H31a3,3,0,0,1-4-3L20,11A3,3,0,0,1,23,7Z" fill="#eb7171"/><path d="M167,69s2,14,1,24,27,3,27,3-2-21,1-29S167,69,167,69Z" fill="#8e4f3a"/><path d="M195,85l11,4c3,1,25,18,25,20s-5,17-7,23-11,48-11,51l10,34c-56,11-86,2-86,2s10-28,10-33-6-36-9-44-10-30-10-30l25-20c1-1,14-4,16-6Z" fill="#8e4f3a"/><path d="M206,89s12,36,16,52l-7,32s-35-7-70,1c0,0-8-33-8-34a178,178,0,0,0,17-50s4-3,8-2-3,36,21,36,17-36,17-36Z" fill="#fccca2"/><path d="M206,89s10-3,24,2,12,4,27,7l22,4,12-23c4-6,9-26,9-26l13,3s-6,31-8,40c-7,25-13,29-18,29s-20,2-30-1-22-3-31,1Z" fill="#8e4f3a"/><path d="M154,90s-10-4-24,1-12,4-27,7l-22,4L69,79c-4-6-9-26-9-26L47,56s6,31,8,40c7,25,13,29,18,29s20,2,30-1,22-3,31,1Z" fill="#8e4f3a"/><path d="M184,10s22,3,18,35-22,29-24,29-19,1-21-38C158,36,157,8,184,10Z" fill="#8e4f3a"/><path d="M181,22l15,16c5,5,5,16,5,16s8-10,5-21S195,0,175,6s-21,36-18,51C157,57,166,25,181,22Z" fill="#163342"/><path d="M173,73a19,19,0,0,0,18-2,12,12,0,0,1-9,6C175,78,173,73,173,73Z" fill="#633029"/></g></g></svg>