<svg xmlns="http://www.w3.org/2000/svg" viewBox="0 0 417 420"><title>Asset 1</title><g id="Layer_2" data-name="Layer 2"><g id="Background_Complete" data-name="Background Complete"><path d="M417,117H200s5-18,20-13c0,0,3-11,12-16s19,0,19,0,2-8,8-11,13,0,13,0,7-24,28-24,26,21,26,21,9-16,26-12,17,22,17,22a11,11,0,0,1,9,0c5,2,5,9,5,9s6-4,12,0,5,14,5,14S410,106,417,117Z" fill="#ebebeb"/><path d="M130,74H0s3-9,12-7a17,17,0,0,1,7-8c5-3,12,0,12,0s1-4,5-6a11,11,0,0,1,8,0s4-12,17-12S75,52,75,52a15,15,0,0,1,16-6c9,2,10,11,10,11a7,7,0,0,1,5,0c3,1,3,4,3,4a8,8,0,0,1,7,0c4,2,3,7,3,7A13,13,0,0,1,130,74Z" fill="#ebebeb"/><path d="M45,246a57,57,0,0,0-2,10s0,1,0,1H42l-7-6a14,14,0,0,1-4-6c-2-7,0-14-2-21s-6-11-9-16-6-11-6-18,0-12,4-15,9-1,12,3,13,23,15,37,2,15,2,22A60,60,0,0,1,45,246Z" fill="#ebebeb"/><path d="M43,259a127,127,0,0,0,0-21h0c0-6,1-11,0-17a101,101,0,0,0-2-18h0a119,119,0,0,1,2,18q0,5,0,10v3h0a112,112,0,0,0-17-45h0a116,116,0,0,1,14,33c-4-8-11-15-16-22h0c4,9,12,15,16,24l2,10a117,117,0,0,1,1,14l-8-15h0c2,5,4,11,8,16s0,7,0,10-2,18-3,27h0A209,209,0,0,0,43,259Z" fill="#a6a6a6"/><path d="M34,189h0c2,5,3,9,4,14h0A50,50,0,0,0,34,189Z" fill="#a6a6a6"/><path d="M76,208l-4,8c-3,5-6,10-7,17a39,39,0,0,1-1,8l-3,7L50,262a58,58,0,0,0-7,17H43c0-14,1-27,5-40a140,140,0,0,1,7-17,40,40,0,0,1,9-13c3-2,8-7,12-4S77,206,76,208Z" fill="#ebebeb"/><path d="M62,239l-8,11-4,5-2,2v-4c2-7,3-14,6-20a138,138,0,0,1,9-19h0l-8,14-3,9a132,132,0,0,1,5-18h0a63,63,0,0,0-5,19h0l-2,5-6,23a82,82,0,0,1,1-15h0a48,48,0,0,0-1,16l-2,9c-1,6-3,13-4,19h0l2-10,2-10,4-15,4-5,4-5,7-10Z" fill="#a6a6a6"/><path d="M63,233l-8,12h0l8-12Z" fill="#a6a6a6"/><path d="M5,221c2,3,4,7,3,10s-2,4-2,7,4,9,8,11,22,12,24,24h1a48,48,0,0,0,0-19c-1-6-4-12-8-18s-12-19-20-27-7-6-9-1S3,217,5,221Z" fill="#ebebeb"/><path d="M13,241c6,7,16,10,21,18a75,75,0,0,0-16-31h0a61,61,0,0,1,13,19,87,87,0,0,0-6-15h0a56,56,0,0,1,6,17c7,17,8,37,6,55h0c0-14,0-29-3-42h0c-6-8-16-12-22-20Z" fill="#a6a6a6"/><path d="M12,236l10,9h0l-10-9Z" fill="#a6a6a6"/><path d="M11,223l10,13h0a47,47,0,0,1-10-13Z" fill="#a6a6a6"/><polygon points="26 317 55 317 51 278 30 278 26 317" fill="#ebebeb"/><polygon points="30 285 51 285 51 278 30 278 30 285" fill="#c7c7c7"/><rect x="27" y="274" width="27" height="6.12" transform="translate(81 555) rotate(180)" fill="#ebebeb"/></g><g id="Floor"><polygon points="0 317 52 316 104 316 209 316 313 316 365 316 417 317 365 317 313 317 209 317 104 317 52 317 0 317" fill="#263238"/></g><g id="Shadow"><ellipse cx="209" cy="400" rx="192" ry="20" fill="#ebebeb"/></g><g id="Puddles"><ellipse cx="69" cy="401" rx="31" ry="5" fill="#c7c7c7"/><path d="M56,403h0Z" fill="#fff"/><path d="M69,404h0Z" fill="#fff"/><path d="M87,403h0Z" fill="#fff"/><path d="M69,398h0Z" fill="#fff"/><path d="M60,402H52a0,0,0,0,1,0,0h8Z" fill="#fff"/><path d="M69,402h0Z" fill="#fff"/><path d="M82,402h0Z" fill="#fff"/><path d="M69,399h0Z" fill="#fff"/><ellipse cx="344" cy="344" rx="31" ry="5" fill="#c7c7c7"/><path d="M330,347h0Z" fill="#fff"/><path d="M343,347h0Z" fill="#fff"/><path d="M361,346h0Z" fill="#fff"/><path d="M343,341h0Z" fill="#fff"/><path d="M334,346h0Z" fill="#fff"/><path d="M343,346h0Z" fill="#fff"/><path d="M356,345h0Z" fill="#fff"/><path d="M343,342h0Z" fill="#fff"/><ellipse cx="364" cy="349" rx="11" ry="2" fill="#c7c7c7"/><path d="M368,348h0Z" fill="#fff"/><path d="M364,348h0Z" fill="#fff"/><path d="M359,348h0Z" fill="#fff"/><path d="M364,350h0Z" fill="#fff"/><path d="M367,349h0Z" fill="#fff"/><path d="M364,349h0Z" fill="#fff"/><path d="M361,349h0Z" fill="#fff"/><path d="M364,350h0Z" fill="#fff"/><ellipse cx="364" cy="398" rx="42" ry="8" fill="#c7c7c7"/><path d="M382,401l9-2h2l-9-2h0l9,2H382Z" fill="#fff"/><path d="M365,402h0Z" fill="#fff"/><path d="M340,400h0Z" fill="#fff"/><path d="M365,392h0Z" fill="#fff"/><path d="M377,400h0Z" fill="#fff"/><path d="M365,400h0Z" fill="#fff"/><path d="M347,399h0Z" fill="#fff"/><path d="M365,394h0Z" fill="#fff"/><ellipse cx="224" cy="380" rx="25" ry="4" fill="#c7c7c7"/><path d="M213,381h0Z" fill="#fff"/><path d="M224,381h0Z" fill="#fff"/><path d="M238,380h0Z" fill="#fff"/><path d="M224,377h0Z" fill="#fff"/><path d="M216,380h0Z" fill="#fff"/><path d="M224,380h0Z" fill="#fff"/><path d="M234,380h0Z" fill="#fff"/><path d="M224,378h0Z" fill="#fff"/><ellipse cx="112" cy="408" rx="42" ry="8" fill="#c7c7c7"/><path d="M131,404l10,2h2l-10,2h0l10-2h-2Z" fill="#fff"/><path d="M112,403h0Z" fill="#fff"/><path d="M86,405h0Z" fill="#fff"/><path d="M112,414h0Z" fill="#fff"/><path d="M126,405h0Z" fill="#fff"/><path d="M112,405h0Z" fill="#fff"/><path d="M93,406h0Z" fill="#fff"/><path d="M112,411h0Z" fill="#fff"/><ellipse cx="22" cy="366" rx="11" ry="2" fill="#c7c7c7"/><path d="M18,367h0Z" fill="#fff"/><path d="M22,367h0Z" fill="#fff"/><path d="M28,366h0Z" fill="#fff"/><path d="M22,364h0Z" fill="#fff"/><path d="M19,366H16a0,0,0,0,1,0,0h3Z" fill="#fff"/><path d="M22,366h0Z" fill="#fff"/><path d="M27,366h0Z" fill="#fff"/><path d="M22,365h0Z" fill="#fff"/></g><g id="Character"><path d="M111,224c19,24,54,60,66,59s48-9,66-22c5-3-15-46-20-42s-35,19-42,20-43-23-63-33S104,215,111,224Z" fill="#d3766a"/><path d="M215,226l13,21h0l10,16h4a159,159,0,0,0,32-16c6-4,22-18,19-23s-8-1-8-1,6-7,3-12-8-1-10,1h-1s6-7,2-12-9,1-10,3h0c1-1,5-7,1-9s-14,10-21,15l-5,3-11,6Z" fill="#d3766a"/><path d="M247,221l10-4c5-3,9-7,12-14s0,0,0-1h0c-4,6-7,9-11,12l-10,5Z" fill="#263238"/><path d="M255,230c11-5,17-8,23-19s0-1,0-1h0c-7,10-12,13-23,19Z" fill="#263238"/><path d="M285,223c-8,9-13,13-24,17h0c12-3,18-8,24-17S285,222,285,223Z" fill="#263238"/><path d="M232,244h2c6-8,1-21,1-21l9-4c4-2,8-6,9-9h0a6,6,0,0,0,0-3h0c-1-2-7-2-14,0s-15,5-18,7-13,18-13,18S223,251,232,244Z" fill="#d3766a"/><path d="M252,206c-2,8-12,11-18,14a1,1,0,0,0,0,1c2,7,3,17-2,23h0c6-6,6-16,3-23s16-7,17-15Z" fill="#263238"/><path d="M232,269l-27-42s-20,10-24,11-50-27-65-34-17,1-7,18,53,59,65,62S232,269,232,269Z" fill="#ffc727"/><path d="M133,228h-5l-2,2h6l2-2Zm92,43h0Zm3-3h0A5,5,0,0,0,229,268Zm-28-15h-4a4,4,0,0,0,0,2h4A4,4,0,0,0,201,253Zm-34,20h0A4,4,0,0,0,167,273Zm-17-52h0a4,4,0,0,0,0,2h0Zm-19,25h0Zm-18-34h-4a4,4,0,0,0,0,2h4A4,4,0,0,0,112,213Zm46,28h-5l-2,2h6l2-2Zm51-8h-5v2h6Zm-31,25h-5v2h6v-2Zm32,17h-5l-2,2h6l2-2Zm-24-32h-1v-4h1v2h1Zm3,33h-1v-4h1v2h1Zm-37-12h-1v-4h1v2h1Z" opacity="0.2"/><path d="M199,234l11,19,6,9,7,9h0l-6-9-6-9-12-18Z" fill="#263238"/><path d="M173,240l-8,4h0l9-3,9-3h0Z" fill="#263238"/><path d="M220,273c-15,5-39,12-46,10s-55-45-65-62l-4-7Z" fill="#263238"/><path d="M340,401c-4,1-105,2-109-1s-2-16-3-34c0-4-13-66-13-66h68l11,66s39,17,43,20S343,400,340,401Z" fill="#d3766a"/><path d="M340,401c-4,1-105,2-109-1s-2-16-3-34l-2-11h66l2,10s39,17,43,20S343,400,340,401Z" fill="#fff"/><path d="M340,401c-4,1-105,2-109-1s-2-16-3-34h65s39,17,43,20S343,400,340,401Z" fill="#ffc727"/><path d="M338,397H236s0,0,0,0H338S339,397,338,397Z" fill="#263238"/><path d="M330,383a14,14,0,0,0-10,4,13,13,0,0,0-4,9h0c1-7,7-13,14-13A0,0,0,0,0,330,383Z" fill="#263238"/><path d="M300,368c-7,0-15,2-19,8h0l19-8A0,0,0,0,0,300,368Z" fill="#263238"/><path d="M305,370c-7,0-15,2-19,8h0l19-8A0,0,0,0,0,305,370Z" fill="#263238"/><path d="M310,372c-7,0-15,2-19,8h0l19-8A0,0,0,0,0,310,372Z" fill="#263238"/><path d="M316,374c-7,0-15,2-19,8h0l19-8A0,0,0,0,0,316,374Z" fill="#263238"/><path d="M240,382c-8,0-8,12,0,12S248,381,240,382Z" fill="#fff"/><path d="M307,349c-3-3-8,0-10,3a36,36,0,0,0-6,17h1c5-3,10-6,14-11S310,352,307,349Zm-8,15-7,5,4-10,2-5c1-2,8-8,9-1S301,362,299,364Z" fill="#263238"/><path d="M274,372c6,1,12-1,18-2a1,1,0,0,0,1-1,0,0,0,0,0,0,0,36,36,0,0,0-17-8c-4-1-9,0-9,5S271,372,274,372Zm-4-4c-5-6,4-6,7-6l5,2,10,5h-9C279,371,273,372,270,369Z" fill="#263238"/><path d="M340,401c-3,1-61,2-91,1l-7-35h52s39,17,43,20S343,400,340,401Z" opacity="0.1"/><path d="M260,214c14,24,37,135,37,135H223l-14-52s-18,61-75,91c-25,13-71,5-81-35l48-60s16,4,23-3c23-24,61-78,75-88S247,192,260,214Z" fill="#37474f"/><path d="M194,242a66,66,0,0,0,2,8l2,8h0v-2l-3-7h0l2,7,2,3v2h0c0,1,9,32,10,34h0l-10-38-2-8a69,69,0,0,0-2-8Z" fill="#263238"/><path d="M291,336H226s0,0,0,0h65S291,336,291,336Z" fill="#263238"/><path d="M298,349H234L206,197c18-7,43-2,54,17S298,349,298,349Z" fill="#263238"/><path d="M369,405c-4,1-105,2-109-1s-2-16-3-34c0-4-27-61-27-61h68l25,61s39,17,43,20S373,404,369,405Z" fill="#d3766a"/><path d="M369,405c-4,1-105,2-109-1s-2-16-3-34l-4-11h65l5,12s39,17,43,20S373,404,369,405Z" fill="#fff"/><path d="M369,405c-4,1-105,2-109-1s-2-16-3-34h65s39,17,43,20S373,404,369,405Z" fill="#ffc727"/><path d="M368,401H265s0,0,0,0H368S368,401,368,401Z" fill="#263238"/><path d="M359,387a14,14,0,0,0-10,4,13,13,0,0,0-4,9h0c1-7,7-13,14-13A0,0,0,0,0,359,387Z" fill="#263238"/><path d="M329,372c-7,0-15,2-19,8h0l19-7A0,0,0,0,0,329,372Z" fill="#263238"/><path d="M335,374c-7,0-15,2-19,8h0l19-7A0,0,0,0,0,335,374Z" fill="#263238"/><path d="M340,376c-7,0-15,2-19,8h0l19-7A0,0,0,0,0,340,376Z" fill="#263238"/><path d="M345,378c-7,0-15,2-19,8h0l19-7A0,0,0,0,0,345,378Z" fill="#263238"/><path d="M270,385c-8,0-8,12,0,12S277,385,270,385Z" fill="#fff"/><path d="M337,353c-3-3-8,0-10,3a36,36,0,0,0-6,17h1c5-3,10-6,14-11S340,356,337,353Zm-8,15-7,5,4-10,2-5c1-2,8-8,9-1S331,366,328,368Z" fill="#263238"/><path d="M304,376c6,1,12-1,18-2a1,1,0,0,0,1-1,0,0,0,0,0,0,0,36,36,0,0,0-17-8c-4-1-9,0-9,5S300,376,304,376Zm-4-4c-5-6,4-6,7-6l5,2,10,5h-9C309,375,302,376,300,373Z" fill="#263238"/><path d="M263,209c14,24,62,145,62,145H246l-26-64S185,400,114,400c-35,0-54-18-65-43l64-63s7,5,10,1c23-24,63-87,77-98S250,187,263,209Z" fill="#37474f"/><path d="M314,341H249s0,0,0,0h65S314,341,314,341Z" fill="#263238"/><path d="M218,283l-2-8-5-15v-8h0c1,5,2,10,4,15l2,5-2-4-3-6h0l3,6,3,5,3,9,4,8h0Z" fill="#263238"/><path d="M252,336l-18-33-16-34-4-10-4-10h0l7,17,8,17q8,17,17,34l11,18Z" fill="#263238"/><path d="M126,292l-11,11-2,2-6,5-6,6h0l6-5,3-3-6,8-5,7h0l5-6,5-6,5-6,5-6,6-7Z" fill="#263238"/><path d="M92,334l-2-5v-3l-2-2h0v2l2,5a34,34,0,0,1,2,9,15,15,0,0,1-2,8l-6,6-8,6h0l9-4,7-6C95,347,95,340,92,334Z" fill="#263238"/><path d="M216,276a383,383,0,0,1-21,42c-8,13-17,26-27,37s-22,20-35,25a59,59,0,0,1-20,4,56,56,0,0,1-20-4,58,58,0,0,1-18-11,98,98,0,0,1-15-17l-3-5h0a129,129,0,0,0,14,19,59,59,0,0,0,17,13,57,57,0,0,0,40,4c14-4,26-12,37-22s20-23,28-36a301,301,0,0,0,22-43l2-5Z" fill="#263238"/><path d="M242,343l-2-6-5-11-9-22-2-6v-3l-2-5h-1c0,2,2,5,2,7l2,6,4,11,9,22,3,6,2,3,2,3h0Z" fill="#263238"/><path d="M186,213l-11,14-10,14-21,28-11,16h0l21-28,20-28,11-16Z" fill="#263238"/><path d="M47,359l97-57c2-1-10-74-21-95-2-4-19-12-33,3C38,272,47,359,47,359Z" fill="#ffc727"/><path d="M109,240h-1v-4h1v2h1Zm7,47h-1v-4h1v2h1ZM88,255H87v-4h1v2h1ZM73,303H72v-4h1v2h1Zm-2,31H70v-4h1v2h1ZM97,206h0Zm34,65h-5l-2,2h6l2-2Zm11,12v2h1Zm-84,5H57l2-2Zm31,33H84l-2,2h6l2-2ZM49,340H48l2-2Zm42-60H86l-2,2h6l2-2Zm27,33h-5l-2,2h6l2-2Zm-5-101h-4a4,4,0,0,0,0,2h4A4,4,0,0,0,112,213Zm22,84h-4a4,4,0,0,0,0,2h4A4,4,0,0,0,134,297Zm-4-50h-4a4,4,0,0,0,0,2h4A4,4,0,0,0,131,247Zm-23,12h-4a4,4,0,0,0,0,2h4A4,4,0,0,0,107,260ZM57,314H52a4,4,0,0,0,0,2h4A4,4,0,0,0,57,314Zm7,35h0Zm9-114h0A4,4,0,0,0,73,236Zm0,33H69a4,4,0,0,0,0,2h4A4,4,0,0,0,73,268Zm26,28H95a4,4,0,0,0,0,2h4A4,4,0,0,0,99,297Zm31-69h-2l-2,2h4Zm-37-3H88l-2,2h6l2-2Z" opacity="0.2"/><path d="M121,227c-5,0-18-12-19-20l11-23c0-1,22,16,22,16s-6,7-8,14v2h0C125,219,126,227,121,227Z" fill="#d3766a"/><path d="M114,185c-1,6-4,24,9,30h3v-2c3-7,8-14,8-14Z" fill="#263238"/><path d="M120,154c-6,8-11,35-7,42s20,18,31,10,16-43,12-51S129,143,120,154Z" fill="#d3766a"/><path d="M150,186h0v5a19,19,0,0,1,0,3c0,1,0,5,0,5s0,3,0,2,0-3,0-4a25,25,0,0,0,0-4v-5s0-1,0-2h0Z" fill="#fff" opacity="0.4"/><path d="M135,173h6l-3,2h-3A1,1,0,0,1,135,173Z" fill="#263238"/><path d="M155,179l-2-2-2-2h-1a3,3,0,0,0,1,3l3,2A1,1,0,0,0,155,179Z" fill="#263238"/><path d="M131,195h1a2,2,0,0,1-1-2Z" fill="#263238"/><path d="M135,194h8v-4h3c1-6,2-13,2-19h0c-1,6-1,12-2,18l-3-2s-1,4-1,5a9,9,0,0,0-7-1C134,193,134,194,135,194Z" fill="#263238"/><path d="M149,182h0c-1,2-1,4,0,5h0C148,186,148,183,149,182Z" fill="#263238"/><path d="M148,184h4a4,4,0,0,0,0-2h-3v-2a12,12,0,0,1,0-2Z" fill="#263238"/><path d="M135,181v2h1a8,8,0,0,1,0,1c0,1-1,3-1,4s0,2,0,2l-3,2-3,4c0,1,0,6,0,7a26,26,0,0,1,1,3,9,9,0,0,0,0,2h0V197l3-4,3-2a7,7,0,0,0,0-2v-4h-2Z" fill="#fff" opacity="0.4"/><path d="M139,179h0c0,2-1,4-3,4s0,0,0,0S139,181,139,179Z" fill="#263238"/><path d="M138,181h-4v-2h0a8,8,0,0,0,0,1v2h2v-2A6,6,0,0,1,138,181Z" fill="#263238"/><path d="M120,167c-2,2-6,8-8,8s4-18,8-22l6-4C126,151,123,164,120,167Z" fill="#263238" opacity="0.2"/><path d="M149,161a9,9,0,0,1-9,2,10,10,0,0,1-7-7h0a10,10,0,0,0,6,7,10,10,0,0,0,9-3Z" fill="#263238"/><path d="M142,137c-5-1-11,2-13,5a11,11,0,0,0-2,7h0a12,12,0,0,1,7-10,15,15,0,0,1,13,0,10,10,0,0,1,4,5h0C151,140,147,138,142,137Z" fill="#263238"/><path d="M172,153a12,12,0,0,0-4-7c-3-3-7-3-11-3a0,0,0,0,0,0,0c3,0,6,0,9,2a12,12,0,0,1,5,6,12,12,0,0,1-7,14,12,12,0,0,1-9,0h0a12,12,0,0,0,17-12Z" fill="#263238"/><path d="M116,160s-4-10,1-15,11-1,11-1a15,15,0,0,1,10-5c7-1,14,5,14,5s7-3,12,2,5,19-4,22-14-4-14-4-9,4-14-4-5,4-9,0A7,7,0,0,1,116,160Z" fill="#263238"/><path d="M117,177s-3-10-7-10-4,14-1,17a5,5,0,0,0,7,0Z" fill="#d3766a"/><path d="M110,171h0c3,2,3,6,3,9s-2-3-3-2h0l3,2v3h1C115,179,114,173,110,171Z" fill="#263238"/><path d="M291,230c3,5-1,9-1,9a12,12,0,0,1,6,6c2,5-4,9-4,9a15,15,0,0,1,5,7c1,5-4,10-4,10a13,13,0,0,1,1,9c-3,8-15,11-23,12s-32,0-36,0l-12-50s33-18,42-19S287,224,291,230Z" fill="#d3766a"/><path d="M290,238c-9-1-17,0-26,1a0,0,0,0,0,0,0h26A0,0,0,0,0,290,238Z" fill="#263238"/><path d="M291,253H279l-12,3s0,0,0,0l13-2h12A0,0,0,0,0,291,253Z" fill="#263238"/><path d="M292,271H281l-11,2s0,0,0,0l12-2h11Z" fill="#263238"/><path d="M233,292c-24,1-81,11-95,4s-33-32-50-58c-9-14-5-24,10-17s48,36,51,37,65-14,75-18S238,292,233,292Z" fill="#d3766a"/><path d="M231,296l-10-56s-65,20-72,17-33-26-48-35-24-3-15,16,42,57,53,63S231,296,231,296Z" fill="#ffc727"/><path d="M109,240h-1v-4h1v2h1Zm42,24h-1v-4h1v2h1Zm8,36v-2h1Zm29-25h-1v-4h1v2h1Zm35-26h0v-2Zm-4,45h-1v-4h1v2h1Zm-89-24h-5l-2,2h6l2-2Zm79,4h-5l-2,2h6l2-2Zm-29,16h-5l-2,2h6l2-2Zm-33-8h-5v2h6v-2Zm31-24h-5v2h6v-2Zm-43,39h0Zm-4-50h-4a4,4,0,0,0,0,2h4A4,4,0,0,0,131,247Zm68,41h-4a4,4,0,0,0,0,2h4A4,4,0,0,0,198,288Zm-91-28h0A4,4,0,0,0,107,260Zm60,14h-4a4,4,0,0,0,0,2h4A4,4,0,0,0,167,273Zm34-20h-4a4,4,0,0,0,0,2h4A4,4,0,0,0,201,253Zm26,18h-2a4,4,0,0,0,0,2h2ZM93,225H88l-2,2h6l2-2Z" opacity="0.2"/><path d="M213,246c0,8,1,16,3,23l2,11,3,12h0l-2-12-2-11c-1-8-2-15-4-23Z" fill="#263238"/><path d="M134,246l-3-3-2-2h-2l-2-2h0l2,3h0l-6-5h0l6,6,3,3,4,3Z" fill="#263238"/><path d="M144,301h-4c-4-2-11-8-13-9l-9-10-17-21-9-12h0l10,14-2-2-4-4h0l5,5h2l4,6a164,164,0,0,0,18,21l6,5,9,5h4A0,0,0,0,0,144,301Z" fill="#263238"/></g><g id="Rain_Cloud" data-name="Rain Cloud"><path d="M74,96H319s-4-8-9-12-12,0-12,0,1-7-4-11a9,9,0,0,0-9-2s4-17-8-27-25-2-25-2,1-5-3-9a7,7,0,0,0-8-1S237,4,215,0s-35,23-35,23-8-10-19-6-10,18-10,18-6-4-11-1-5,9-5,9a22,22,0,0,0-19,1c-10,5-8,18-8,18s-5-1-9,2-2,8-2,8a13,13,0,0,0-11,2c-5,3-4,13-4,13S77,87,74,96Z" fill="#c7c7c7"/><path d="M218,124c-5,0-5-6-3-13l3-6,3,6C223,117,223,124,218,124Z" fill="#c7c7c7"/><path d="M238,194c-5,0-5-6-3-13l3-6,3,6C243,188,243,194,238,194Z" fill="#dbdbdb"/><path d="M275,147c-5,0-5-6-3-13l3-6,3,6C280,140,280,147,275,147Z" fill="#dbdbdb"/><path d="M304,235c-5,0-5-6-3-13l3-6,3,6C309,229,310,235,304,235Z" fill="#c7c7c7"/><path d="M155,151c-5,0-5-6-3-13l3-6,3,6C160,145,160,151,155,151Z" fill="#c7c7c7"/><path d="M89,120c-5,0-5-6-3-13l3-6,3,6C94,114,94,120,89,120Z" fill="#dbdbdb"/><path d="M50,202c-5,0-5-6-3-13l3-6,3,6C55,195,56,202,50,202Z" fill="#dbdbdb"/></g></g></svg>