<svg xmlns="http://www.w3.org/2000/svg" viewBox="0 0 254 356"><title>Asset 1</title><g id="Layer_2" data-name="Layer 2"><g id="OBJECTS"><rect x="112" y="217" width="82" height="40.44" transform="translate(428 297) rotate(135)" fill="#ffc28f"/><path d="M9,182l74,74a30,30,0,0,0,43,0l46-46a30,30,0,0,0,9-21h0V116a35,35,0,0,1,10-25l3-3a16,16,0,0,0,0-22h0a16,16,0,0,0-22,0L160,78a35,35,0,0,0-7,10h0a35,35,0,0,0-3,15v29l-5,6L27,21A16,16,0,0,0,5,21H5A16,16,0,0,0,5,43l63,63Z" fill="#ffd5a9"/><path d="M9,182l74,74a30,30,0,0,0,43,0l46-46a30,30,0,0,0,9-21h0V116a35,35,0,0,1,10-25l3-3a16,16,0,0,0,0-22h0a16,16,0,0,0-22,0L160,78a35,35,0,0,0-7,10h0a35,35,0,0,0-3,15v29l-5,6L27,21A16,16,0,0,0,5,21H5A16,16,0,0,0,5,43l63,63Z" fill="#ffd5a9"/><path d="M53,203h0a16,16,0,0,0,0-22L36,163a16,16,0,0,0-22,0h0a16,16,0,0,0,0,22l17,17A16,16,0,0,0,53,203Z" fill="#ffc28f"/><path d="M75,180h0a16,16,0,0,0,0-22L49,132a16,16,0,0,0-22,0h0a16,16,0,0,0,0,22l26,26A16,16,0,0,0,75,180Z" fill="#ffc28f"/><path d="M102,163h0a16,16,0,0,0,0-22L67,105a16,16,0,0,0-22,0h0a16,16,0,0,0,0,22l36,36A16,16,0,0,0,102,163Z" fill="#ffc28f"/><path d="M26,53A7,7,0,1,0,37,43c-3-3-16-5-16-5S23,50,26,53Z" fill="#ee605a"/><rect x="134" y="265" width="48" height="18.38" transform="translate(463 356) rotate(135)" fill="#f9bb24"/><path d="M211,252h0a41,41,0,0,1,41,41v47a0,0,0,0,1,0,0H170a0,0,0,0,1,0,0V293A41,41,0,0,1,211,252Z" transform="translate(569 355) rotate(135)" fill="#face30"/><rect x="142" y="263" width="82" height="9.13" transform="translate(502 327) rotate(135)" fill="#f7ab18"/><rect x="176" y="266" width="42" height="87.99" transform="translate(555 389) rotate(135)" fill="#f7ab18"/><rect x="127" y="249" width="93" height="18.38" transform="translate(479 318) rotate(135)" fill="#face30"/><path d="M111,233h0a55,55,0,0,1-39-16L53,198V140H166v39A55,55,0,0,1,111,233Z" fill="#dd9960"/><path d="M76,52h94a8,8,0,0,1,8,8V177a55,55,0,0,1-55,55h0a55,55,0,0,1-55-55V60a8,8,0,0,1,8-8Z" fill="#335780"/><path d="M76,52a8,8,0,0,0-8,8V177a55,55,0,0,0,54,55V52Z" fill="#294c73"/><rect x="83" y="71" width="80" height="75.06" rx="5" ry="5" fill="#22436a"/><path d="M122,191v41h1a54,54,0,0,0,34-12,34,34,0,0,0-34-29" fill="#214269"/><path d="M89,220h0Z" fill="#0e8d98"/><path d="M122,231V191a34,34,0,0,0-33,29h0A54,54,0,0,0,122,231Z" fill="#1b375c"/><path d="M88,71h34a0,0,0,0,1,0,0v75a0,0,0,0,1,0,0H88a5,5,0,0,1-5-5V76A5,5,0,0,1,88,71Z" fill="#1c385d"/><rect x="87" y="74" width="72" height="67.39" rx="3" ry="3" fill="#97c9d7"/><path d="M90,74h32a0,0,0,0,1,0,0v67a0,0,0,0,1,0,0H90a3,3,0,0,1-3-3V78A3,3,0,0,1,90,74Z" fill="#84c4d6"/><path d="M158,174l-24,3c-4,0-7-3-7-7v-3a6,6,0,0,1,6-7h24a6,6,0,0,1,6,7h0A6,6,0,0,1,158,174Z" fill="#22436a"/><path d="M88,174l24,3c4,0,7-3,7-7v-3a6,6,0,0,0-6-7H89a6,6,0,0,0-6,7h0A6,6,0,0,0,88,174Z" fill="#1c385d"/><path d="M91,171l18,2c3,0,5-1,5-4v-2c0-2-2-4-5-4H91c-3,0-5,2-5,4h0C87,169,89,170,91,171Z" fill="#d58c00"/><path d="M154,171l-18,2c-3,0-5-1-5-4v-2c0-2,2-4,5-4h18c3,0,5,2,5,4h0C158,169,157,170,154,171Z" fill="#d79b09"/><path d="M123,195h0a28,28,0,0,0-28,28h0a54,54,0,0,0,28,8h0a54,54,0,0,0,28-8h0A28,28,0,0,0,123,195Z" fill="#335780"/><rect x="116" width="12" height="36.3" transform="translate(244 36) rotate(180)" fill="#e9ebec"/><rect x="116" y="6" width="12" height="8.07" transform="translate(244 21) rotate(180)" fill="#cc3933"/><rect x="116" width="6" height="36.3" transform="translate(238 36) rotate(180)" fill="#d8d8d8"/><rect x="116" y="6" width="6" height="8.07" transform="translate(238 21) rotate(180)" fill="#c22b23"/><path d="M136,186l18,9c2,1,3,0,4-1l2-10c0-1-1-2-3-2H137C135,183,134,185,136,186Z" fill="#97c9d7"/><path d="M109,186l-18,9c-2,1-3,0-4-1l-2-10c0-1,1-2,3-2h20C111,183,111,185,109,186Z" fill="#84c4d6"/><path d="M167,47H83c-4,0-7,2-7,5h94C170,49,168,47,167,47Z" fill="#4979a6"/><path d="M122,47H83c-4,0-7,2-7,5h46Z" fill="#3e699f"/><path d="M115,36h13a3,3,0,0,1,3,3v8a0,0,0,0,1,0,0H113a0,0,0,0,1,0,0V39A3,3,0,0,1,115,36Z" fill="#335780"/><path d="M116,36h7a0,0,0,0,1,0,0V47a0,0,0,0,1,0,0H113a0,0,0,0,1,0,0V39A3,3,0,0,1,116,36Z" fill="#1c4863"/><path d="M94,224h0a54,54,0,0,0,28,8V195A28,28,0,0,0,94,224Z" fill="#294c73"/><circle cx="122" cy="213" r="15" fill="#163055"/><path d="M122,228a15,15,0,1,1,0-30Z" fill="#11294b"/><circle cx="122" cy="213" r="11" fill="#d79b09"/><path d="M122,224a11,11,0,1,1,0-22Z" fill="#d58c00"/><path d="M127,94a5,5,0,1,1-9,0c0-3,5-9,5-9S127,92,127,94Z" fill="#cc3933"/><path d="M122,99a5,5,0,0,1-5-5c0-3,5-9,5-9Z" fill="#c22b23"/><text transform="translate(106 128)" font-size="24.71" fill="#455e64" font-family="Montserrat-Medium, Montserrat Medium">7.5</text><rect x="143" y="80" width="7" height="4.62" fill="#455e64"/><rect x="140" y="80" width="10" height="4.62" fill="none" stroke="#455e64" stroke-miterlimit="10" stroke-width="1.09"/><rect x="138" y="81" width="2" height="2.42" fill="#455e64"/><path d="M45,195h0a16,16,0,0,0,0-22L28,155a16,16,0,0,0-22,0H6a16,16,0,0,0,0,22l17,17A16,16,0,0,0,45,195Z" fill="#ffd5a9"/><path d="M39,189h0a9,9,0,0,0,0-13H38L26,189h1A9,9,0,0,0,39,189Z" fill="#fbe6c3"/><path d="M67,172h0a16,16,0,0,0,0-22L41,124a16,16,0,0,0-22,0h0a16,16,0,0,0,0,22l26,26A16,16,0,0,0,67,172Z" fill="#ffd5a9"/><path d="M61,167h0a9,9,0,0,0,0-13H61L48,166h1A9,9,0,0,0,61,167Z" fill="#fbe6c3"/><path d="M95,155h0a16,16,0,0,0,0-22L59,98a16,16,0,0,0-22,0h0a16,16,0,0,0,0,22l36,36A16,16,0,0,0,95,155Z" fill="#ffd5a9"/><path d="M89,150h0a9,9,0,0,0,0-13H88L76,149h1A9,9,0,0,0,89,150Z" fill="#fbe6c3"/></g></g></svg>