<svg xmlns="http://www.w3.org/2000/svg" xmlns:xlink="http://www.w3.org/1999/xlink" viewBox="0 0 346 427"><defs><linearGradient id="Degradado_sin_nombre_71" x1="196.83" y1="99.08" x2="209.33" y2="103.63" gradientTransform="translate(-10 22) rotate(-7)" gradientUnits="userSpaceOnUse"><stop offset="0" stop-color="#f09ea4"/><stop offset="0.41" stop-color="#ef9ba2"/><stop offset="0.58" stop-color="#ea828e"/><stop offset="0.93" stop-color="#dd435c"/><stop offset="1" stop-color="#da3652"/></linearGradient></defs><title>Asset 1</title><g id="Layer_2" data-name="Layer 2"><g id="OBJECTS"><path d="M143,128s4,18-1,38,24,28,37,24,19-16,19-16-10-6-9-37S145,119,143,128Z" fill="#f09ea4"/><path d="M190,147s-12,13-46,10a134,134,0,0,0-1-29S183,135,190,147Z" fill="#30436b"/><path d="M226,51s9,86-24,95-67-8-69-31c0,0-4,2-14-4s-10-29,0-32,16,8,16,8-4-39,8-54S225,19,226,51Z" fill="#f09ea4"/><path d="M129,93s-3-14-8-9,0,21,5,20,1-3,1-8S129,93,129,93Z" fill="#30436b"/><circle cx="170" cy="102" r="9" transform="translate(-11 20) rotate(-7)" fill="#cc5065"/><path d="M172,69l10,3c5,0,6,4,3,6s-11,1-15-3S167,68,172,69Z" fill="#30436b"/><path d="M190,84H177c-2,1-1,1,1,2s-2,1-1,2S190,85,190,84Z" fill="#30436b"/><path d="M222,65a35,35,0,0,1-10,4c-5,1-5,4-2,7s11-1,15-5S227,63,222,65Z" fill="#30436b"/><path d="M208,83h13c2,1,1,1-1,2s2,1,1,2S208,84,208,83Z" fill="#30436b"/><path d="M204,138a6,6,0,0,1-5-2,0,0,0,0,1,0-1h1s3,3,7,0h-3Z" fill="#30436b"/><path d="M204,138a7,7,0,0,1-5-2,1,1,0,0,1,0-1h1s3,3,6,0h1a1,1,0,0,1,0,1Zm-5-2h0Z" fill="#30436b"/><ellipse cx="204" cy="123" rx="11" ry="8" transform="translate(57 310) rotate(-83)" fill="#30436b"/><path d="M197,121h0c-1,6,2,11,6,11s6-2,8-5S197,121,197,121Z" fill="#cc5065"/><path d="M203,90s-10,10-4,16,9,0,10-4S204,92,203,90Z" fill="url(#Degradado_sin_nombre_71)"/><path d="M202,108h0s4-1,5-3,1-3-1-5-3-14-3-15h2c0,1,0,11,2,13s3,4,2,7S203,108,202,108Z" fill="#30436b"/><path d="M188,148c-25,0-45-13-45-13a1,1,0,0,1,0-1h1s23,15,50,13h-6Z" fill="#213a68"/><path d="M228,21c5-14-10-20-23-19s-16,8-29,2-52,1-60,16-12,27-13,44c0,0-10,48,37,67-4-4-6-9-7-14s-4,2-14-4-10-29,0-32a12,12,0,0,1,9,1h0l6,7s1,7,9-1,0-36,18-32,29-8,43-2,29-7,33-17S224,33,228,21Z" fill="#236fa1"/><path d="M136,91h-1s-4-8-10-10h0c7,2,11,10,11,11a1,1,0,0,1-1,1Z" fill="#30436b"/><path d="M175,53h-1a1,1,0,0,1,0-1c1,0,13-6,22-4l7,2c6,2,10,3,17,0h1a1,1,0,0,1,0,1c-7,4-12,2-18,0l-7-2c-9-2-21,4-21,4Z" fill="#30436b"/><path d="M117,30h-1s4-12,13-16h1c-8,3-12,14-12,14Z" fill="#30436b"/><path d="M222,11h-1c-4-6-15-5-15-5h0c1,0,12-1,17,5a1,1,0,0,1,0,1Z" fill="#30436b"/><path d="M300,145s9-1,11-14-2-18-5-24-2-7-5-7-6,1-7,2-2-3-4-4H275a4,4,0,0,0-4,3c-1,2-2,2-2,2s-7-1-8,2h0s-2,1-1,4,2,12,4,13,6,2,6,4a74,74,0,0,1,0,10c0,4,7,10,16,12l10,2C298,150,300,145,300,145Z" fill="#f09ea4"/><path d="M265,121Z" fill="#fc7777"/><path d="M293,121h1c1,0,2-2,2-3h2s-1,4-3,5Z" fill="#30436b"/><path d="M270,125h0l-5-2c-3-2-5-12-5-15s3-5,5-6h0s-4,0-4,4,2,13,4,14l5,2h0Z" fill="#30436b"/><path d="M276,118h-3c-2-1-2-4-2-9v-4a5,5,0,0,1,1-4,6,6,0,0,1,4-2h-3a3,3,0,0,0-1,2v4c0,3,0,7,1,8h2Z" fill="#30436b"/><path d="M283,115h-1v-9c-1-6,3-7,3-7h1s-2,1-2,5v9h-1Z" fill="#30436b"/><path d="M298,117h-1c-2,0-6-5-6-8s3-8,3-8h1a1,1,0,0,1,0,1c-1,1-3,4-3,6s4,6,5,7h7c0-1,0-3-2-4a1,1,0,0,1,0-1h1a6,6,0,0,1,3,5h0Z" fill="#30436b"/><path d="M271,132h-1c0-1-1-7,0-10s4-4,6-5h1l3-2,4-2h4c2,2,1,4,1,5h-2c0-1,0-3-1-4h-5l-4,2h-1c-3,1-4,2-5,4s0,6,0,9h-1Z" fill="#30436b"/><path d="M282,135h-1c-1-3-2-7,0-8l4-4,2-2h1a1,1,0,0,1,0,1l-2,2-4,4s0,3,1,6h-1Z" fill="#30436b"/><path d="M300,141h-1c-10-8-8-15-7-15h2s-2,6,7,13a1,1,0,0,1,0,1Z" fill="#30436b"/><path d="M276,144l2,11c1,5,12,3,21,0a14,14,0,0,0,10-11v-7s-8,8-14,11S276,144,276,144Z" fill="#30436b"/><path d="M279,160s3,94,26,112c0,0,2,6,16,2s26-29,24-54c0-3,1-4,0-7-10-28-32-65-32-65S303,164,279,160Z" fill="#19597c"/><path d="M279,160s-3-1-2-11h1c2,1,8,2,18-1s12-9,14-9,8,10,6,12S297,165,279,160Z" fill="#236fa1"/><path d="M290,246h-1c-7-26-9-54-9-54h2s2,28,9,54h-1Z" fill="#213a68"/><path d="M286,163h-2s14,1,27-7h1a1,1,0,0,1,0,1C302,162,291,163,286,163Z" fill="#213a68"/><path d="M330,241h-1c1-3,4-6,7-9s9-10,8-16-15-31-15-32a1,1,0,0,1,0-1h1c1,1,13,22,15,32s-4,12-9,17-6,6-6,9Z" fill="#213a68"/><path d="M144,156s3,29,28,28,20-21,20-21,45,12,60,24,50,31,50,31,43,6,42,17c-3,24-4,35-24,39s-28,3-51,7-24-5-26-5-5,17-8,67c-1,14,4,37,3,46-2,21,0,20,0,38H93c-2-41,0-57-2-100-1-13-7-48-7-48s-41,57-62,57S-7,322,8,290c9-19,23-52,37-77s19-31,26-35C90,168,118,160,144,156Z" fill="#19597c"/><path d="M144,154s-15,1-17,5-2,23,24,33,40-2,45-7,7-16,6-20-10-6-11-6-4,18-23,16S143,163,144,154Z" fill="#236fa1"/><path d="M76,290s3-13,8-13,8,19,8,19l-17-7" fill="#213a68"/><path d="M270,273c-10-3-33-13-35-11s5,28,5,28l3-11a3,3,0,0,1,3-2c4,2,13,4,22,4a37,37,0,0,0,21-6A75,75,0,0,1,270,273Z" fill="#213a68"/><path d="M100,166l28-7a19,19,0,0,0,0,10h0C131,176,120,165,100,166Z" fill="#213a68"/><path d="M202,166a25,25,0,0,1,0,9h0s17-2,25,0Z" fill="#213a68"/><path d="M168,177h-5c-13-2-19-12-19-12a1,1,0,0,1,0-1h1a24,24,0,0,0,17,11c13,2,23-4,25-11h2C188,171,180,177,168,177Z" fill="#213a68"/><path d="M169,198c-24,0-32-12-32-13a1,1,0,0,1,0-1h1s8,13,33,12,29-20,29-21h2s-4,21-31,22Z" fill="#213a68"/><path d="M230,219h-1a110,110,0,0,1,14-29h1a1,1,0,0,1,0,1,107,107,0,0,0-14,29Z" fill="#213a68"/><path d="M95,213H94c-6-12-20-26-20-26a1,1,0,0,1,0-1h1c1,1,14,14,20,26a1,1,0,0,1,0,1Z" fill="#213a68"/><path d="M270,283c-11,0-26-7-27-7a1,1,0,0,1,0-1h1s20,9,30,6,23-8,23-8h1a1,1,0,0,1,0,1s-12,6-23,8Z" fill="#213a68"/><path d="M225,409h-1a1,1,0,0,1,0-1s14-9,14-20V376c-1-15-3-37-2-46h2c-1,9,1,31,2,46v12c1,12-14,21-15,22Z" fill="#213a68"/><path d="M175,255h-1l-7-11a1,1,0,0,1,0-1h1l7,11a1,1,0,0,1,0,1Z" fill="#213a68"/><path d="M180,250h-1l-5-12a1,1,0,0,1,1-1h1l5,12a1,1,0,0,1-1,1Z" fill="#213a68"/><path d="M185,249h-1V236h2v13Z" fill="#213a68"/><path d="M229,298h0l12-4h1l-12,4Z" fill="#213a68"/><path d="M233,304h0l12-2h0l-12,2Z" fill="#213a68"/><path d="M244,312h0l-12-3h0l12,3h0Z" fill="#213a68"/><path d="M93,398h0l12-3h1l-12,3Z" fill="#213a68"/><path d="M89,390h0l13-2h0l-13,2Z" fill="#213a68"/><path d="M103,383h0l-12-4h1l12,4h0Z" fill="#213a68"/><path d="M48,227H47l-11-7a1,1,0,0,1,0-1h1l11,7a1,1,0,0,1,0,1Z" fill="#213a68"/><path d="M50,221H50l-10-8a1,1,0,0,1,0-1h1l10,8a1,1,0,0,1,0,1Z" fill="#213a68"/><path d="M55,218H54l-5-11a1,1,0,0,1,0-1h1l5,11a1,1,0,0,1,0,1Z" fill="#213a68"/><path d="M164,393c-4,0-11-7-13-10a1,1,0,0,1,0-1h1c5,5,10,10,12,9a15,15,0,0,1,8-3h0a13,13,0,0,0-7,2Z" fill="#213a68"/><path d="M181,321c-1-3-7-10-11-15a9,9,0,0,0-10-3l-14,5c-6,2-17,11-19,12s-16-1-15,9-12,16-10,16l22-3s4,3,8,4l19-3s12,8,15,7,5-8,5-8,4-4,4-6a2,2,0,0,0-2-2s7-5,6-7S183,325,181,321Z" fill="#f09ea4"/><path d="M178,328h0s2-1,2-5-8-12-13-17a1,1,0,0,1,0-1h1c1,1,14,13,14,18s-4,6-4,6Z" fill="#213a68"/><path d="M173,337h-1a1,1,0,0,1,0-1s4-2,5-5-6-10-10-14a1,1,0,0,1,0-1h1c2,2,10,11,10,15s-5,7-6,7Z" fill="#213a68"/><path d="M170,345h-1a1,1,0,0,1,0-1s3-2,3-5-6-9-10-13a1,1,0,0,1,0-1h1c1,1,10,10,11,14s-4,7-4,7Z" fill="#213a68"/><path d="M163,353h-1c-3,0-15-8-17-9a1,1,0,0,1,0-1h1l16,9h4a5,5,0,0,0,2-3c0-2-5-6-10-9a1,1,0,0,1,0-1h1c2,1,11,7,11,11a7,7,0,0,1-2,5Z" fill="#213a68"/><path d="M130,348c-5,0-10-8-10-8a1,1,0,0,1,0-1h1c1,2,5,7,8,7h0Z" fill="#213a68"/><path d="M130,318s-5,19-4,27l-3-4s0-18,7-23" fill="#30436b"/><path d="M121,313S58,274,17,275c0,0-16,26-17,44a15,15,0,0,0,2,8c3,5,8,16,16,20s11-1,17,0l15,3c29,3,62-2,62-2S108,331,121,313Z" fill="#19597c"/><path d="M120,313s2-3,11,3a1,1,0,0,1,0,1c-2,1-5,6-7,17s2,16,1,17-12,3-12,0S108,327,120,313Z" fill="#236fa1"/><path d="M120,314h-1c-28-22-83-33-83-33h0c1,0,56,11,84,33a1,1,0,0,1,0,1Z" fill="#213a68"/><path d="M46,350h0c1,0,55,1,64-1h0c-10,2-63,1-65,1Z" fill="#213a68"/><path d="M112,343h-1c0-18,5-25,6-25h1a1,1,0,0,1,0,1s-5,7-5,24Z" fill="#213a68"/><path d="M22,349h0c-7,0-17-17-18-19a1,1,0,0,1,0-1H5c3,5,12,18,17,18l15-4,9-2h0l-8,2Z" fill="#213a68"/><path d="M279,77h-4V76h3a1,1,0,0,0-1-2h-5V72h-1v2h-3v2h0v2h2v3h1V81h2a1,1,0,0,0,0,1h2a1,1,0,0,0,0-1h-2V78h4Z" fill="#30436b"/><path d="M233,124h-4v-2h4a1,1,0,0,0-1-2h-2a1,1,0,0,0,0,1h-4v-3h-1v3h-3v2h-5v2h4v2h3v3h1v-3h3a1,1,0,0,0,0,1h2a1,1,0,0,0,1-2h-2v-2h4Z" fill="#30436b"/><path d="M258,143h-4v-2h4a1,1,0,0,0-1-2h-2a1,1,0,0,0,0,1h-4v-3h-1v3h-3v2h-5v2h4v2h3v3h1v-3h3a1,1,0,0,0,0,1h2a1,1,0,0,0,1-2h-2v-2h4Z" fill="#30436b"/><path d="M257,98h-5a4,4,0,0,0-1-3h4a2,2,0,0,0-1-2h-2a1,1,0,0,0,0,1h-4V90h-1v3h-3v2h-4l-2,2a2,2,0,0,0,1,2l2-2h3v3h3v3h1v-3h3a1,1,0,0,0,0,2h2a1,1,0,0,0,1-2h-2V99h5Z" fill="#30436b"/></g></g></svg>